<svg id="Layer_1" data-name="Layer 1" xmlns="http://www.w3.org/2000/svg" viewBox="0 0 240.13 400"><defs><style>.cls-1,.cls-3{fill:#fff;}.cls-1,.cls-2{opacity:0.35;}</style></defs><title>background-pattern</title><path class="cls-1" d="M20.14,31.39a11.15,11.15,0,0,0,.93-22.27l0,0v0c-0.3,0-.59,0-0.89,0s-0.6,0-.89,0v0l0,0A11.15,11.15,0,0,0,20.14,31.39ZM15.2,20.8h4.33v2.79c-1.34,0-2.64.1-3.87,0.25A14,14,0,0,1,15.2,20.8Zm0.45-4.18c1.23,0.14,2.53.22,3.87,0.25v2.7H15.2A14,14,0,0,1,15.65,16.62Zm9.43,2.95H20.76v-2.7c1.34,0,2.64-.1,3.88-0.24A13.93,13.93,0,0,1,25.08,19.57Zm-0.45,4.26c-1.23-.14-2.54-0.22-3.87-0.24V20.8h4.33A14,14,0,0,1,24.63,23.83Zm-3.87,1c1.21,0,2.38.09,3.49,0.2a11.59,11.59,0,0,1-3.49,5v-5.2Zm-1.23,0V30A11.59,11.59,0,0,1,16,25C17.15,24.91,18.32,24.84,19.53,24.82Zm3.27,5a13.27,13.27,0,0,0,2.71-4.6,24.3,24.3,0,0,1,2.87.59A10,10,0,0,1,22.79,29.78ZM29,24.66A24.49,24.49,0,0,0,25.86,24a15.19,15.19,0,0,0,.46-3.19H30A9.84,9.84,0,0,1,29,24.66Zm-2.7-5.09a15.24,15.24,0,0,0-.45-3.1A24.51,24.51,0,0,0,29,15.8a9.85,9.85,0,0,1,1,3.77H26.31Zm2.07-4.88a24.12,24.12,0,0,1-2.87.58,13.22,13.22,0,0,0-2.71-4.6A10,10,0,0,1,28.38,14.69Zm-4.12.74c-1.12.12-2.29,0.19-3.5,0.2v-5.2A11.55,11.55,0,0,1,24.25,15.43Zm-4.73-5v5.2c-1.21,0-2.38-.09-3.49-0.21A11.55,11.55,0,0,1,19.53,10.44Zm-2,.24a13.21,13.21,0,0,0-2.7,4.59,23.94,23.94,0,0,1-2.86-.59A10,10,0,0,1,17.48,10.67Zm-6,4.77-0.1.34a24.33,24.33,0,0,0,3.08.66A15.22,15.22,0,0,0,14,19.57H10.25A9.85,9.85,0,0,1,11.45,15.45Zm-1.2,5.35H14a15.19,15.19,0,0,0,.46,3.2,24.37,24.37,0,0,0-3.08.67L11.45,25A9.85,9.85,0,0,1,10.25,20.8Zm4.54,4.39a13.26,13.26,0,0,0,2.7,4.59,10,10,0,0,1-5.57-4A23.9,23.9,0,0,1,14.79,25.19Z"/><g class="cls-2"><path class="cls-3" d="M50.09,27.31h2.25a8,8,0,0,0,12.93,0h5.43a1.69,1.69,0,0,0,1.69-1.69V14a1.69,1.69,0,0,0-1.69-1.69H69.86V12.14a1.62,1.62,0,0,0-1.69-1.55H65.9a1.62,1.62,0,0,0-1.69,1.55v0.15H61.47v-1.4a1.69,1.69,0,0,0-1.69-1.69H56.11a1.69,1.69,0,0,0-1.69,1.69v1.4H50.09A1.69,1.69,0,0,0,48.4,14V25.62A1.69,1.69,0,0,0,50.09,27.31Zm8.72,1.91a6.6,6.6,0,1,1,6.6-6.6A6.61,6.61,0,0,1,58.81,29.22ZM65.6,12.14A0.29,0.29,0,0,1,65.9,12h2.28a0.29,0.29,0,0,1,.29.15v0.15H65.6V12.14Zm-9.78-1.25a0.3,0.3,0,0,1,.29-0.29h3.67a0.3,0.3,0,0,1,.29.29v1.4H55.82v-1.4ZM49.8,14a0.3,0.3,0,0,1,.29-0.29H70.71A0.3,0.3,0,0,1,71,14V25.62a0.3,0.3,0,0,1-.29.29H66.1a8,8,0,1,0-14.57,0H50.09a0.3,0.3,0,0,1-.29-0.29V14Z"/><path class="cls-3" d="M58.81,26.61h-0.2a4,4,0,0,1-2-7.27l0.16-.12A0.7,0.7,0,0,0,56,18a5.39,5.39,0,0,0,2.81,10A0.7,0.7,0,0,0,58.81,26.61Z"/><path class="cls-3" d="M51.1,16.23h1.83a0.7,0.7,0,0,0,0-1.4H51.1A0.7,0.7,0,0,0,51.1,16.23Z"/><path class="cls-3" d="M68.65,25.07h1a0.7,0.7,0,1,0,0-1.4h-1A0.7,0.7,0,1,0,68.65,25.07Z"/></g><path class="cls-1" d="M9.88,58a4.93,4.93,0,0,0-2.12.48L5.91,55.83l0.66-1.36H7.44a0.79,0.79,0,0,0,0-1.58H4.19a0.79,0.79,0,1,0,0,1.58H4.82l-0.31.64H-4.38l0.54-1.16a0.79,0.79,0,0,0,0-.76,0.79,0.79,0,0,0-.67-0.37c-0.29,0-.43-0.12-0.4-0.25a0.63,0.63,0,0,1,.41-0.1h3.24a0.79,0.79,0,0,0,.79-0.79,0.79,0.79,0,0,0-.79-0.79H-4.55A2.14,2.14,0,0,0-6,51.38a1.65,1.65,0,0,0-.57,1.24,1.75,1.75,0,0,0,.9,1.5l-1.92,4.09A5,5,0,0,0-8.89,58a5,5,0,0,0-5,5,5,5,0,0,0,5,5,5,5,0,0,0,5-5,5,5,0,0,0-2.23-4.15l0.8-1.72,5.09,4.16a2.37,2.37,0,0,0-.15.81,2.39,2.39,0,0,0,4.54,1l0.79,0.09A5,5,0,1,0,9.88,58ZM-5.49,63a3.4,3.4,0,0,1-3.39,3.39A3.4,3.4,0,0,1-12.28,63a3.4,3.4,0,0,1,3.39-3.39,3.41,3.41,0,0,1,.62.06L-9.6,62.53a0.79,0.79,0,0,0,.38,1.05,0.79,0.79,0,0,0,.34.07,0.79,0.79,0,0,0,.72-0.46l1.34-2.87A3.38,3.38,0,0,1-5.49,63ZM8.25,62L6.7,61.86a3.38,3.38,0,0,1,.67-1.11ZM-3.41,56.68H3.74L2.25,59.76,2,59.73a2.36,2.36,0,0,0-1.24.36ZM2,62.93a0.81,0.81,0,1,1,.81-0.81A0.81,0.81,0,0,1,2,62.93Zm2.33-1.34a2.39,2.39,0,0,0-.63-1.15l1.44-3,1.34,1.95a5,5,0,0,0-1.36,2.26Zm5.57,4.82a3.39,3.39,0,0,1-3.35-3L9.79,63.8H9.88a0.78,0.78,0,0,0,.26,0l0.08,0,0.1-.05,0,0a0.76,0.76,0,0,0,.13-0.13l0.07-.09a0.8,0.8,0,0,0,.06-0.15,0.78,0.78,0,0,0,0-.13v0a190.54,190.54,0,0,0,0-.28,0.77,0.77,0,0,0-.07-0.15,0.73,0.73,0,0,0,0-.1L8.67,59.85a3.36,3.36,0,0,1,1.21-.23A3.39,3.39,0,0,1,9.88,66.41Z"/><path class="cls-1" d="M28.8,70.73a0.71,0.71,0,0,0,.71.71H52A0.71,0.71,0,0,0,52,70H48.94l-3.48-4.13L43.64,62l-2.18-11.8v-2.1a0.71,0.71,0,0,0-1.41,0v2.1L37.87,62l-1.82,3.85L32.57,70H29.5A0.71,0.71,0,0,0,28.8,70.73Zm12-16.54,0.64,3.47H40.11Zm0,8.75-1.2-.84H42Zm1.82,3a10.93,10.93,0,0,0-3.65,0l1.82-1.28ZM42,63.82l0.7-.49,0.7,1.48Zm-0.33-4.73L42,60.7h-2.4l0.3-1.62h1.8Zm-2.83,4.24,0.7,0.49-1.4,1ZM34.94,70c0.57-1.58,3-2.81,5.81-2.81S46,68.45,46.57,70H34.94Z"/><path class="cls-1" d="M131.34,150.16h-5.19l0.33-3.49a0.7,0.7,0,0,0-.63-0.76h-0.09l0.31-3.23a0.7,0.7,0,0,0-.16-0.51,0.68,0.68,0,0,0-.26-0.19l0.31-3.27a0.69,0.69,0,0,0-.24-0.58l0.32-3.37a0.7,0.7,0,0,0-.63-0.76l-0.34,0,0.31-3.23a0.7,0.7,0,0,0-.63-0.76l-1.69-.16,0.14-1.51a0.7,0.7,0,0,0-1.39-.13l-0.14,1.51-1.69-.16a0.7,0.7,0,0,0-.76.63l-0.31,3.23-0.34,0a0.7,0.7,0,0,0-.76.63l-0.32,3.37-0.09,0a0.7,0.7,0,0,0-.25.47l-0.31,3.27a0.69,0.69,0,0,0-.54.6L116,145h-0.09a0.7,0.7,0,0,0-.76.63l-0.44,4.57h-5.6a0.7,0.7,0,1,0,0,1.39h22.22A0.7,0.7,0,0,0,131.34,150.16Zm-7.84-6.88a0.7,0.7,0,0,0-.76.63l-0.16,1.69-1-.1,0.16-1.69a0.7,0.7,0,1,0-1.39-.13l-0.16,1.69-1-.1,0.16-1.69a0.7,0.7,0,0,0-1.39-.13l-0.16,1.69-0.41,0,0.24-2.53,3.49,0.33h0l2.11,0.2h0l1.37,0.13-0.24,2.53-0.41,0,0.16-1.69A0.7,0.7,0,0,0,123.51,143.28Zm-4-4.48h0l1.94,0.19h0l3,0.29-0.24,2.53-0.21,0,0.16-1.69a0.7,0.7,0,1,0-1.39-.13l-0.16,1.69-0.73-.07,0.16-1.69a0.7,0.7,0,0,0-1.39-.13l-0.16,1.69-0.73-.07,0.16-1.69a0.7,0.7,0,1,0-1.39-.13l-0.16,1.69-0.21,0,0.24-2.53Zm1-7.81,1.69,0.16h0l1.69,0.16-0.24,2.53h-0.15l0.16-1.69a0.7,0.7,0,1,0-1.39-.13l-0.16,1.69-0.3,0L122,132a0.7,0.7,0,1,0-1.39-.13l-0.16,1.69-0.15,0Zm-1.07,3.85h0L121,135h0l1.68,0.16h0l1.53,0.15h0l0.33,0-0.24,2.53h-0.08l0.16-1.69a0.7,0.7,0,0,0-1.39-.13l-0.16,1.69-0.56-.05L122.5,136a0.7,0.7,0,0,0-1.39-.13l-0.16,1.69-0.56-.05,0.16-1.69a0.7,0.7,0,1,0-1.39-.13L119,137.34h-0.08l0.24-2.53,0.34,0h0Zm4.29,12.6a0.69,0.69,0,0,0-.76.63l-0.2,2.09h-0.48l0.2-2.08a0.7,0.7,0,1,0-1.39-.13L121,150.16h-0.61l0.21-2.21a0.7,0.7,0,0,0-1.39-.13l-0.23,2.34H118.2l0.23-2.35a0.7,0.7,0,1,0-1.39-.13l-0.24,2.48h-0.68l0.36-3.74h0.09l1.8,0.17h0l2.39,0.23h0l2.38,0.23h0l1.79,0.17H125l-0.28,2.92h-0.53l0.19-2A0.7,0.7,0,0,0,123.79,147.44Z"/><path class="cls-1" d="M232.1,31.71a0.69,0.69,0,0,0-.69-0.69h-8.49V18.4h0.15a0.69,0.69,0,0,0,.69-0.69V12.33a0.69,0.69,0,0,0-.68-0.69L221,7.77a0.69,0.69,0,0,0-1.22,0l-2.09,3.87a0.69,0.69,0,0,0-.68.69v5.38a0.69,0.69,0,0,0,.69.69h0.15V31h-8.49a0.69,0.69,0,0,0,0,1.38h22.06A0.69,0.69,0,0,0,232.1,31.71Zm-12.87-6.33h0.46V27.3h-0.46V25.38Zm0-3.3h0.46V24h-0.46V22.08Zm1.15-6.33A0.72,0.72,0,1,1,221.1,15,0.72,0.72,0,0,1,220.38,15.74Zm2-.09V17H221A2.1,2.1,0,0,0,222.38,15.65ZM219.75,17h-1.37V15.65A2.1,2.1,0,0,0,219.75,17Zm-0.52,3.67V18.56h2.31v2.13h-2.31Zm2.31,3.3h-0.46V22.08h0.46V24Zm-0.46,1.38h0.46V27.3h-0.46V25.38Zm1.31-11A2.1,2.1,0,0,0,221,13h1.37v1.37Zm-4,0V13h1.37A2.1,2.1,0,0,0,218.38,14.39Zm3.15,16.42h-2.31V28.69h2.31v2.13ZM220.38,9.55l1.13,2.09h-2.25Z"/><g class="cls-2"><path class="cls-3" d="M76.19,70.09V70.8a0.64,0.64,0,1,0,1.29,0V70.09h7.18V70.8a0.64,0.64,0,1,0,1.29,0V70.09a1.55,1.55,0,0,0,1.52-1.55V55.11a1.56,1.56,0,0,0-1.55-1.55H83.6V50.25H82.32v3.31H79.8V50.25H78.52v3.31H76.22a1.56,1.56,0,0,0-1.55,1.55V68.54A1.55,1.55,0,0,0,76.19,70.09Zm7.67-1.28H78.27V60.06a2.8,2.8,0,1,1,5.59,0V68.8ZM76,55.11a0.27,0.27,0,0,1,.27-0.27H85.9a0.27,0.27,0,0,1,.27.27V68.54a0.27,0.27,0,0,1-.27.27H85.14V60.06a4.08,4.08,0,1,0-8.16,0V68.8H76.22A0.27,0.27,0,0,1,76,68.54V55.11Z"/><path class="cls-3" d="M79.8,49a0.27,0.27,0,0,1,.27-0.27h2a0.27,0.27,0,0,1,.27.27v0.62H83.6V49A1.56,1.56,0,0,0,82,47.44h-2A1.56,1.56,0,0,0,78.52,49v0.62H79.8V49Z"/></g><path class="cls-1" d="M143.75,103.93c0-.75.72-1.53,1.55-2.43,1.3-1.42,2.93-3.19,2.93-6a7.74,7.74,0,0,0-15.49,0c0,2.82,1.62,4.59,2.93,6,0.83,0.9,1.55,1.69,1.55,2.43a0.67,0.67,0,0,0,.52.65l1.06,3.61a0.68,0.68,0,0,0-.19.47v2.4a0.68,0.68,0,0,0,.68.68h2.4a0.68,0.68,0,0,0,.68-0.68v-2.4a0.68,0.68,0,0,0-.19-0.47l1.06-3.61A0.67,0.67,0,0,0,143.75,103.93Zm3.11-8.44c0,2.29-1.36,3.78-2.57,5.08a6.93,6.93,0,0,0-1.82,2.67h-0.2a10.53,10.53,0,0,1,.6-2A15,15,0,0,0,144,95.49a13.44,13.44,0,0,0-1.22-5.93A6.39,6.39,0,0,1,146.86,95.49Zm-4.18,0a13.62,13.62,0,0,1-1.08,5.31,10.79,10.79,0,0,0-.71,2.45h-0.83a10.8,10.8,0,0,0-.71-2.45,13.64,13.64,0,0,1-1.08-5.31c0-3.89,1.3-6.38,2.2-6.38S142.68,91.6,142.68,95.49Zm-6,5.08c-1.2-1.31-2.57-2.79-2.57-5.08a6.39,6.39,0,0,1,4-5.93,13.44,13.44,0,0,0-1.22,5.93,15,15,0,0,0,1.17,5.79,10.61,10.61,0,0,1,.6,2h-0.2A6.94,6.94,0,0,0,136.67,100.58Zm1.78,4h1.69V108h-0.71Zm2.55,5.77h-1v-1h1v1Zm0.53-2.4h-0.71v-3.37h1.69Z"/><g class="cls-2"><path class="cls-3" d="M10.69,108a3.39,3.39,0,0,0,1,2.52,4.07,4.07,0,0,0,2.94,1.21,3.45,3.45,0,0,0,2.76-1.23,3,3,0,0,0,.52-2.63,31.92,31.92,0,0,1-.8-5A7.16,7.16,0,0,1,18,99.43a13.27,13.27,0,0,0,1.54-4.84c0.17-1.54-.26-3.62-1.38-4.42a4,4,0,0,0-2.28-.59,6.34,6.34,0,0,0-2.13.36,6,6,0,0,0-3.27,4.49,33.44,33.44,0,0,0-.05,7A53.16,53.16,0,0,1,10.69,108Zm6.13-9.34A8.54,8.54,0,0,0,15.67,103a33,33,0,0,0,.84,5.25,1.62,1.62,0,0,1-.26,1.43,2.06,2.06,0,0,1-1.66.7,2.65,2.65,0,0,1-1.92-.78,2,2,0,0,1-.57-1.48,54.62,54.62,0,0,0-.27-6.83,31.61,31.61,0,0,1-.14-3.36,10.42,10.42,0,0,0,3.61-3.24,10,10,0,0,0,1.95,3.19A5.75,5.75,0,0,1,16.82,98.68Zm-4.95-4a4.64,4.64,0,0,1,2.36-3.37A4.89,4.89,0,0,1,15.88,91a2.7,2.7,0,0,1,1.46.32,4,4,0,0,1,.8,3.13,12.21,12.21,0,0,1-.36,1.81A6.11,6.11,0,0,1,16.37,93a0.91,0.91,0,0,0-.65-1,0.9,0.9,0,0,0-.94.7,8.36,8.36,0,0,1-3,3.51C11.76,95.62,11.81,95.08,11.87,94.64Z"/><path class="cls-3" d="M21.14,100.36a31.85,31.85,0,0,1-2.23,4.52,3,3,0,0,0-.28,2.67,3.45,3.45,0,0,0,2.27,2,4.28,4.28,0,0,0,1.27.19,3.57,3.57,0,0,0,3.56-2.61,53.13,53.13,0,0,1,2.2-6.24,33.4,33.4,0,0,0,2-6.67A6,6,0,0,0,28.15,89a5.36,5.36,0,0,0-4.28-1.09c-1.31.44-2.33,2.29-2.63,3.82a13.3,13.3,0,0,0,0,5.07A7.15,7.15,0,0,1,21.14,100.36Zm5.51,0a54.72,54.72,0,0,0-2.27,6.45,2.18,2.18,0,0,1-2.2,1.55,2.86,2.86,0,0,1-.85-0.13A2.06,2.06,0,0,1,19.95,107a1.62,1.62,0,0,1,.17-1.44,32.87,32.87,0,0,0,2.35-4.77,8.54,8.54,0,0,0,.17-4.43,5.63,5.63,0,0,1-.16-0.93A10,10,0,0,0,25.29,93a10.42,10.42,0,0,0,2.49,4.16A31.74,31.74,0,0,1,26.65,100.33Zm-4-8.37a4,4,0,0,1,1.69-2.75,1.37,1.37,0,0,1,.43-0.06,4.66,4.66,0,0,1,2.55.93A4.64,4.64,0,0,1,28.56,94c-0.07.44-.18,1-0.33,1.55a8.35,8.35,0,0,1-1.87-4.25,0.9,0.9,0,0,0-.69-0.94,0.92,0.92,0,0,0-.91.73,6.11,6.11,0,0,1-2.32,2.72A12.19,12.19,0,0,1,22.63,92Z"/></g><path class="cls-1" d="M50.39,102.35h0.14l7.3-1.45,0.25,5.64a1.79,1.79,0,0,1-.49,1.15l-0.66.59a3.1,3.1,0,0,0-1,2.06,1.24,1.24,0,0,0,1.3,1.25,1.86,1.86,0,0,0,.68-0.14l1.78-.69V111a0.74,0.74,0,0,0,1.48,0v-0.26l1.78,0.69a1.86,1.86,0,0,0,.68.14,1.24,1.24,0,0,0,1.3-1.25,3.1,3.1,0,0,0-1-2.06l-0.66-.59a1.79,1.79,0,0,1-.49-1.15L63,100.88l7.3,1.45h0.14a0.74,0.74,0,0,0,.74-0.74V99.68A0.74,0.74,0,0,0,70.73,99L63.2,95.4l0.16-3.61a3.88,3.88,0,0,0-.79-2.36l-0.92-1.11a1.63,1.63,0,0,0-2.48,0l-0.92,1.11a3.88,3.88,0,0,0-.79,2.36L57.6,95.4,50.07,99a0.74,0.74,0,0,0-.42.67v1.92A0.74,0.74,0,0,0,50.39,102.35ZM63.13,97l6.54,3.14v0.56L63,99.38Zm-4.55,11.78a3.22,3.22,0,0,0,1-2.33L58.92,91.73a2.44,2.44,0,0,1,.45-1.35l0.92-1.11a0.11,0.11,0,0,1,.2,0l0.92,1.11a2.44,2.44,0,0,1,.45,1.35l-0.65,14.73a3.22,3.22,0,0,0,1,2.33l0.66,0.59a1.92,1.92,0,0,1,.45.65l-1.69-.66a3.83,3.83,0,0,0-2.49,0l-1.69.66a1.92,1.92,0,0,1,.45-0.65Zm-7.44-8.64L57.67,97l0.1,2.38-6.64,1.32v-0.56Z"/><g class="cls-2"><path class="cls-3" d="M179.54,89.09a3.26,3.26,0,0,1,3.26,3.26,0.67,0.67,0,1,0,1.34,0,4.6,4.6,0,1,0-9.21,0v16.82a2.58,2.58,0,0,0,2.58,2.58h4a2.58,2.58,0,0,0,2.58-2.58v-9a4.61,4.61,0,0,0-4.6-4.6,3.21,3.21,0,0,1-.78-0.1A3.25,3.25,0,0,1,179.54,89.09Zm3.26,20.08a1.24,1.24,0,0,1-1.23,1.23h-4a1.24,1.24,0,0,1-1.23-1.23V107a4.6,4.6,0,0,0,6.52,0v2.17Zm-6.52-5.42a3.26,3.26,0,1,1,3.26,3.26A3.26,3.26,0,0,1,176.28,103.75ZM179.54,97a3.3,3.3,0,0,1,3.26,3.26v0.29a4.6,4.6,0,0,0-6.52,0V95.6A4.59,4.59,0,0,0,179.54,97Z"/><rect class="cls-3" x="177.84" y="103.07" width="3.4" height="1.35"/></g><g class="cls-2"><path class="cls-3" d="M88.71,28.64a0.71,0.71,0,0,0,.71.71H112a0.71,0.71,0,1,0,0-1.42H89.41A0.71,0.71,0,0,0,88.71,28.64Z"/><path class="cls-3" d="M109.58,17.93a0.71,0.71,0,0,0,0-1.42H91.83a0.71,0.71,0,0,0,0,1.42h0.22v7.7H91.83a0.71,0.71,0,0,0,0,1.42h17.75a0.71,0.71,0,0,0,0-1.42h-0.22v-7.7h0.22Zm-16.11,0h0.85v7.7H93.47v-7.7Zm2.27,0h0.85v7.7H95.74v-7.7Zm2.27,0h0.85v7.7H98v-7.7Zm2.27,0h0.85v7.7h-0.85v-7.7Zm2.27,0h0.85v7.7h-0.85v-7.7Zm2.27,0h0.85v7.7h-0.85v-7.7Zm3.12,7.7h-0.85v-7.7h0.85v7.7Z"/><path class="cls-3" d="M110.35,15.8a0.7,0.7,0,0,0,.25-0.05l0.07,0,0.15-.1,0.05,0A0.73,0.73,0,0,0,111,15.4l0,0h0a0.8,0.8,0,0,0,0-.12,0.71,0.71,0,0,0,0-.15h0a0.72,0.72,0,0,0-.05-0.27,0.61,0.61,0,0,0-.06-0.08,0.7,0.7,0,0,0-.11-0.15,0.72,0.72,0,0,0-.22-0.14h0L101,10.51l-0.08,0a0.71,0.71,0,0,0-.18,0,0.7,0.7,0,0,0-.19,0h-0.08l-9.64,3.92h0a0.62,0.62,0,0,0-.33.3,0.75,0.75,0,0,0-.05.08,0.73,0.73,0,0,0-.05.27h0a0.68,0.68,0,0,0,0,.15,0.69,0.69,0,0,0,0,.12h0l0,0a0.68,0.68,0,0,0,.12.18l0.05,0,0.15,0.1,0.07,0a0.7,0.7,0,0,0,.25.05h19.3ZM94.68,14.38l6-2.45,6,2.45H94.68Z"/></g><path class="cls-1" d="M232.38,184.69v-5.91a0.71,0.71,0,1,0-1.41,0v0.28h-0.32v-0.28a0.71,0.71,0,1,0-1.42,0v0.28H228.9v-0.28a0.71,0.71,0,0,0-1.42,0v0.28h-0.32v-0.28a0.71,0.71,0,1,0-1.41,0v0.28h-0.32v-0.28a0.71,0.71,0,1,0-1.42,0v0.28h-0.29V176.2a0.69,0.69,0,0,0-.13-0.38v-0.6a0.71,0.71,0,0,0-1.42,0v0.28h-0.25v-0.28a0.71,0.71,0,0,0-1.42,0v0.28h-0.25v-0.28a0.71,0.71,0,0,0-1.42,0v0.28h-0.25v-0.28a0.71,0.71,0,0,0-1.42,0v0.6a0.69,0.69,0,0,0-.13.38v2.86h-0.29v-0.28a0.71,0.71,0,0,0-1.42,0v0.28H215v-0.28a0.71,0.71,0,1,0-1.42,0v0.28h-0.32v-0.28a0.71,0.71,0,0,0-1.42,0v0.28h-0.32v-0.28a0.71,0.71,0,1,0-1.42,0v0.28h-0.32v-0.28a0.71,0.71,0,1,0-1.41,0v5.91a0.71,0.71,0,0,0,.71.71h22.58A0.71,0.71,0,0,0,232.38,184.69Zm-22.58-4.22H217V184h-7.25v-3.51Zm12.5,3.51h-3.83v-7.08h3.83V184Zm1.42-3.51H231V184h-7.25v-3.51Z"/><g class="cls-2"><rect class="cls-3" x="197.87" y="138.43" width="4.52" height="1.42"/><path class="cls-3" d="M188.84,146.47h22.58a0.71,0.71,0,0,0,0-1.42h-3.74v-5.2h1.06a0.71,0.71,0,1,0,0-1.42h-3.52v1.42h1v5.2h-1.75v-9l0.71,0,0.68,0a0.71,0.71,0,0,0-.08-1.41l-0.6,0-0.71,0v-0.31l0.71,0c1.22-.06,2.42-0.14,3.58-0.24a0.71,0.71,0,0,0-.13-1.41c-1.21.11-2.45,0.19-3.72,0.25l-2.35.08c-0.82,0-1.64,0-2.47,0s-1.66,0-2.47,0l-2.35-.08c-1.27-.06-2.52-0.14-3.72-0.25a0.71,0.71,0,0,0-.13,1.41c1.16,0.1,2.36.18,3.58,0.24l0.71,0v0.31l-0.71,0-0.6,0a0.71,0.71,0,0,0-.08,1.41l0.68,0,0.71,0v9H194v-5.2h1v-1.42h-3.52a0.71,0.71,0,0,0,0,1.42h1.06v5.2h-3.74A0.71,0.71,0,0,0,188.84,146.47Zm8.32-12.09,0.71,0,2.26,0,2.26,0,0.71,0v0.33h-0.71c-1.51,0-3,0-4.52,0h-0.71v-0.33Zm0,1.74h0.71c0.76,0,1.51,0,2.26,0s1.5,0,2.26,0h0.71v8.93h-5.93v-8.93Z"/></g><g class="cls-2"><path class="cls-3" d="M11.89,146.31a0.71,0.71,0,0,0-.71-0.71H10.87l-4.34-8.3,0,0v0a0.71,0.71,0,0,0-.08-0.09l-0.09-.09,0,0h0l-0.06,0-0.14-.06H5.77l-0.09,0h0l-0.09,0,0,0h0l-0.08.08-0.09.09,0,0h0L3,140.53l-5.57-8.13a0.68,0.68,0,0,0-.14-0.15l0,0a0.7,0.7,0,0,0-.19-0.09l0,0h0l-0.2,0h-0.1a0.71,0.71,0,0,0-.19.07l0,0a0.7,0.7,0,0,0-.18.16l0,0,0,0.07-7,13.13H-11.4a0.71,0.71,0,0,0-.71.71,0.71,0.71,0,0,0,.71.71H11.18A0.71,0.71,0,0,0,11.89,146.31Zm-7.42-5.38L4.2,142.25l-0.32-.46Zm-9.79-2.51-1.85,7.18h-2ZM-5.7,145.6l2.87-11.11L4.78,145.6H-5.7Zm12.2,0L5.3,143.86l0.88-4.16,3.09,5.9H6.49Z"/></g><path class="cls-1" d="M48.64,184.75a0.74,0.74,0,1,0,0,1.48H72.16a0.74,0.74,0,1,0,0-1.48H71.94a9.51,9.51,0,0,1,.26-5.05,0.74,0.74,0,0,0-.92-0.93,11.18,11.18,0,0,0-2.41,1.08,14,14,0,0,1,.54-2.37,0.74,0.74,0,0,0-.92-0.93A15.34,15.34,0,0,0,64,178.76a20.59,20.59,0,0,0-8.44-5.05,0.74,0.74,0,0,0-.92.93,19.32,19.32,0,0,1,.75,3.27,15.33,15.33,0,0,0-3.12-1.36,0.74,0.74,0,0,0-.92.93,14,14,0,0,1,.54,2.37,11.17,11.17,0,0,0-2.41-1.08,0.73,0.73,0,0,0-.74.19,0.74,0.74,0,0,0-.18.75,9.42,9.42,0,0,1,.25,5.05H48.64Zm21.8-4.08a11.16,11.16,0,0,0-.19,2.06,11,11,0,0,0,.14,1.72H66.22A9.83,9.83,0,0,1,70.43,180.68Zm-2.81-2.25a15.31,15.31,0,0,0-.35,2.56,11.33,11.33,0,0,0-2.73,3.47h-3c-0.1-.21-0.21-0.42-0.32-0.62A13.94,13.94,0,0,1,67.62,178.43Zm-11.14-2.85a19.13,19.13,0,0,1,6.38,4.12,15.49,15.49,0,0,0-2.46,2.78A15.43,15.43,0,0,0,57,179,20.59,20.59,0,0,0,56.49,175.57Zm-3.31,2.85a14,14,0,0,1,6.75,6H56.25A11.33,11.33,0,0,0,53.53,181,15.3,15.3,0,0,0,53.18,178.43Zm1.41,6H50.42a10.93,10.93,0,0,0,.14-1.72,11.16,11.16,0,0,0-.19-2.06A9.84,9.84,0,0,1,54.58,184.46Z"/><path class="cls-1" d="M171.9,68.54a0.71,0.71,0,0,0-.71-0.71h-3v-9h0a0.71,0.71,0,1,0,0-1.42h0V54.17h0a0.71,0.71,0,1,0,0-1.42H168L167.68,51h0.06a0.71,0.71,0,0,0,0-1.42H152.06a0.71,0.71,0,0,0,0,1.42h0.06l-0.36,1.7h-0.18a0.71,0.71,0,1,0,0,1.42h0V57.4h0a0.71,0.71,0,1,0,0,1.42h0v9h-3a0.71,0.71,0,1,0,0,1.42h22.58A0.71,0.71,0,0,0,171.9,68.54ZM166.23,51l0.36,1.7H153.2l0.36-1.7h12.67ZM153,54.17h13.73V57.4H163a3.23,3.23,0,0,0-6.3,0H153V54.17Zm0,4.65h3.63v9H153v-9Zm5,0h0a0.71,0.71,0,0,0,.71-0.71,0.7,0.7,0,0,0-.62-0.69,1.81,1.81,0,0,1,3.36,0,0.7,0.7,0,0,0-.62.69,0.71,0.71,0,0,0,.71.71h0v9h-3.63v-9Zm5,0h3.63v9h-3.63v-9Z"/><path class="cls-1" d="M132.14,65h-0.71V62.42a0.71,0.71,0,0,0-.71-0.71h-1.62V59.34a0.71,0.71,0,0,0-.71-0.71h-1.62V56.25a0.71,0.71,0,0,0-.71-0.71h-1.62V53.17a0.71,0.71,0,0,0-.71-0.71h-5.87a0.71,0.71,0,0,0-.71.71v2.38h-1.62a0.71,0.71,0,0,0-.71.71v2.38h-1.62a0.71,0.71,0,0,0-.71.71v2.38h-1.62a0.71,0.71,0,0,0-.71.71V65h-0.6l-0.11,0a0.7,0.7,0,0,0-.6.69,0.71,0.71,0,0,0,.71.71h22.58A0.71,0.71,0,0,0,132.14,65ZM123,57.48v1.26h-4.46V57H123v0.46Zm-4.46,2.67H123v1.72h-4.46V60.15Zm0-6.27H123V55.6h-4.46V53.88Zm-7,11.12V63.13h1.62a0.71,0.71,0,0,0,.71-0.71V60h1.62a0.71,0.71,0,0,0,.71-0.71V57h0.92v8h-5.58Zm7-1.72H123V65h-4.46V63.28ZM129.3,65h-4.87V57h0.92v2.38a0.71,0.71,0,0,0,.71.71h1.62v2.38a0.71,0.71,0,0,0,.71.71H130V65H129.3Z"/><g class="cls-2"><path class="cls-3" d="M131.32,14.85l-1.19,2.1a6,6,0,0,0-.69,2.6V29.7a2,2,0,0,0,2,2h5.4a2,2,0,0,0,2-2V19.54a6,6,0,0,0-.69-2.6L137,14.85a4.49,4.49,0,0,1-.47-1.78V12.86a8.08,8.08,0,0,1,0-.82,4.09,4.09,0,0,0,.17-1.52V9.9c0-1,0-2-.93-2h-3.25c-0.93,0-.93,1-0.93,2v0.61a4.09,4.09,0,0,0,.17,1.52,8,8,0,0,1,0,.82v0.21A4.48,4.48,0,0,1,131.32,14.85Zm1.44,0.82a6,6,0,0,0,.69-2.6V12.86a4.09,4.09,0,0,0-.17-1.52,8.08,8.08,0,0,1,0-.82V9.9c0-.13,0-0.24,0-0.34H135c0,0.1,0,.22,0,0.34v0.61a8.14,8.14,0,0,1,0,.82,4.09,4.09,0,0,0-.17,1.52v0.21a6,6,0,0,0,.69,2.6l1.19,2.1a4.48,4.48,0,0,1,.47,1.78V29.7a0.35,0.35,0,0,1-.34.34h-5.4a0.35,0.35,0,0,1-.34-0.34V19.54a4.48,4.48,0,0,1,.47-1.78Z"/><path class="cls-3" d="M151.31,19.26A1.47,1.47,0,0,0,150,17h-9.23a1.46,1.46,0,0,0-1.36,2.24c0.08,0.16,1.88,3.61,5.15,4.13v6.09l-3.1.81a0.83,0.83,0,0,0,.21,1.63h7.44a0.83,0.83,0,0,0,.21-1.63l-3.1-.81V23.38C149.44,22.86,151.24,19.41,151.31,19.26Zm-10.37-.59h8.81c-0.39.68-2,3.13-4.41,3.13S141.4,19.44,140.94,18.66Z"/></g><g class="cls-2"><path class="cls-3" d="M167.55,29.12a0.79,0.79,0,0,0,.78.71h0s11.35-.12,18.59-0.24a0.79,0.79,0,0,0,.75-0.62A6.42,6.42,0,0,1,191,25.53a0.78,0.78,0,0,0-.43-1.5l-22.43,4.24A0.78,0.78,0,0,0,167.55,29.12Zm20-2.92A7.82,7.82,0,0,0,186.36,28l-9.11.12Z"/><path class="cls-3" d="M171.06,26.19a0.78,0.78,0,0,0,1,.16,9,9,0,0,1,3-1.22,0.36,0.36,0,0,1,.43.35,0.78,0.78,0,0,0,1.45.17,8.51,8.51,0,0,0,.89-3.06,0.79,0.79,0,0,0,.35-0.05,4.3,4.3,0,0,1,1.69-.31,5.6,5.6,0,0,1,4.55,2.15,0.78,0.78,0,0,0,.66.35l0.17,0a0.78,0.78,0,0,0,.61-0.64,13.62,13.62,0,0,0-3.05-10.52A9.68,9.68,0,0,0,175.4,10h-0.12a0.78,0.78,0,0,0-.53,1.36c3.63,3.39,4.69,6.62,3.07,9.21a8.78,8.78,0,0,0-.57-2.36,6.6,6.6,0,0,0-4.05-3.92,0.79,0.79,0,0,0-.94,1.12c1.94,3.64.38,7.35-1.28,9.83A0.78,0.78,0,0,0,171.06,26.19Zm6.33-14.37a8.5,8.5,0,0,1,4.21,2.77,12.18,12.18,0,0,1,2.82,7.56,7.8,7.8,0,0,0-4.55-1.47h-0.32C180.44,18.74,180.73,15.69,177.39,11.81Zm-2.91,5a5.57,5.57,0,0,1,1.32,2,7.72,7.72,0,0,1,.21,5,3.17,3.17,0,0,0-2.46.1A10.56,10.56,0,0,0,174.49,16.82Z"/></g><g class="cls-2"><path class="cls-3" d="M90.53,107.43a0.71,0.71,0,1,0,1.41,0V98.26l1.44-1.44a0.7,0.7,0,0,0,.39-0.62V93.94a0.71,0.71,0,0,0-1.41,0v1.92l-0.43.43a0.68,0.68,0,0,0,0-.08V93.94a0.71,0.71,0,0,0-1.41,0V96.2a0.69,0.69,0,0,0,0,.15l-0.44-.44v-2a0.71,0.71,0,0,0-1.41,0V96.2a0.72,0.72,0,0,0,.21.5h0l1.62,1.62v9.11Z"/><path class="cls-3" d="M112,108.13a0.71,0.71,0,0,0,.71-0.71V92.08h0a0.72,0.72,0,0,0,0-.09,1,1,0,0,0-.18-0.41,0.7,0.7,0,0,0-.17-0.12l-0.05,0h0a0.69,0.69,0,0,0-.16,0l-0.12,0h0l-0.13,0-0.13,0a0.71,0.71,0,0,0-.14.09l-0.08.06a0.71,0.71,0,0,0-.12.17l0,0.05h0c-0.44,1-1.81,4.35-1.29,5.77a2.62,2.62,0,0,0,1.24,1.12v8.75A0.71,0.71,0,0,0,112,108.13Z"/><path class="cls-3" d="M93.58,100.17a7.7,7.7,0,1,0,7.7-7.7A7.71,7.71,0,0,0,93.58,100.17Zm14,0a6.29,6.29,0,1,1-6.29-6.29A6.29,6.29,0,0,1,107.57,100.17Z"/><path class="cls-3" d="M97.36,100.17a3.91,3.91,0,0,1,.56-2,0.71,0.71,0,1,0-1.21-.73,5.34,5.34,0,0,0,4.57,8.09,0.71,0.71,0,0,0,0-1.41A3.93,3.93,0,0,1,97.36,100.17Z"/></g><g class="cls-2"><path class="cls-3" d="M47.61,137.43a0.72,0.72,0,0,0,0-1.43H46.79a6.92,6.92,0,0,0-.91-2.78l0.67-.49a0.72,0.72,0,0,0-.84-1.16l-0.67.49a7,7,0,0,0-2.36-1.72l0.26-.79a0.72,0.72,0,1,0-1.36-.44l-0.25.78a6.88,6.88,0,0,0-2.93,0l-0.25-.78a0.72,0.72,0,0,0-1.36.44L37,130.34a7,7,0,0,0-2.36,1.72L34,131.57a0.72,0.72,0,0,0-.84,1.16l0.67,0.49A6.92,6.92,0,0,0,32.9,136H32.08a0.72,0.72,0,0,0,0,1.43H32.9a6.91,6.91,0,0,0,.91,2.78l-0.67.49a0.72,0.72,0,0,0-.16,1,0.69,0.69,0,0,0,.46.27,3.21,3.21,0,0,1,.58-0.14l0.63-.46c0.15,0.17.31,0.33,0.48,0.48a3,3,0,0,1,1,.35l1.08,0.64a0.63,0.63,0,0,0,.3,0l1.06-.63,0.13-.07,0.19-.09,0.81-2.49,0.17,0,0.17,0,0.74,2.29a3.09,3.09,0,0,1,.65.18,2.8,2.8,0,0,1,.34.17l1.08,0.64a0.65,0.65,0,0,0,.3,0l0.83-.49a7.09,7.09,0,0,0,1.08-1l0.59,0.43a3.47,3.47,0,0,1,.88.07,0.67,0.67,0,0,0,.2-0.17,0.72,0.72,0,0,0-.16-1l-0.67-.49a6.92,6.92,0,0,0,.91-2.78h0.82ZM45.34,136H42.6a2.71,2.71,0,0,0-.1-0.33l2.21-1.61A5.49,5.49,0,0,1,45.34,136Zm-1.47-3.09-2.21,1.61a2.91,2.91,0,0,0-.27-0.21l0.84-2.6A5.56,5.56,0,0,1,43.87,132.91Zm-4-1.74a5.56,5.56,0,0,1,1,.1L40,133.87l-0.17,0-0.17,0-0.85-2.6A5.45,5.45,0,0,1,39.84,131.17Zm-2.38.54,0.84,2.6a2.78,2.78,0,0,0-.27.21l-2.21-1.61A5.57,5.57,0,0,1,37.46,131.71ZM35,134.06l2.21,1.61a2.87,2.87,0,0,0-.1.33H34.35A5.51,5.51,0,0,1,35,134.06Zm-0.63,3.37h2.73a2.82,2.82,0,0,0,.1.33L35,139.37A5.5,5.5,0,0,1,34.35,137.43Zm3.12,4.29a5.58,5.58,0,0,1-1.65-1.2L38,138.92a2.62,2.62,0,0,0,.27.21Zm2.38-3.57a1.43,1.43,0,1,1,1.43-1.43A1.43,1.43,0,0,1,39.84,138.15Zm2.38,3.57-0.84-2.6a2.69,2.69,0,0,0,.27-0.21l2.21,1.61A5.58,5.58,0,0,1,42.22,141.72Zm2.49-2.35-2.21-1.61a2.85,2.85,0,0,0,.1-0.33h2.73A5.5,5.5,0,0,1,44.71,139.37Z"/><path class="cls-3" d="M52,142.55a0.72,0.72,0,0,0-1-.25l-1.95,1.16a1.18,1.18,0,0,1-1,0L47,142.82a2.59,2.59,0,0,0-2.48,0l-1.08.64a1.18,1.18,0,0,1-1,0l-1.08-.64a2.59,2.59,0,0,0-2.48,0l-1.08.64a1.18,1.18,0,0,1-1,0l-1.08-.64a2.59,2.59,0,0,0-2.48,0l-1.08.64a1.18,1.18,0,0,1-1,0l-1.95-1.16a0.72,0.72,0,1,0-.73,1.23l1.95,1.16a2.59,2.59,0,0,0,2.48,0L34,144a1.17,1.17,0,0,1,1,0l1.08,0.64a2.59,2.59,0,0,0,2.48,0l1.08-.64a1.17,1.17,0,0,1,1,0l1.08,0.64a2.59,2.59,0,0,0,2.48,0l1.08-.64a1.17,1.17,0,0,1,1,0l1.08,0.64a2.59,2.59,0,0,0,2.48,0l1.95-1.16A0.72,0.72,0,0,0,52,142.55Z"/><path class="cls-3" d="M52,145.29a0.72,0.72,0,0,0-1-.25l-1.95,1.16a1.18,1.18,0,0,1-1,0L47,145.56a2.59,2.59,0,0,0-2.48,0l-1.08.64a1.18,1.18,0,0,1-1,0l-1.08-.64a2.59,2.59,0,0,0-2.48,0l-1.08.64a1.18,1.18,0,0,1-1,0l-1.08-.64a2.59,2.59,0,0,0-2.48,0l-1.08.64a1.18,1.18,0,0,1-1,0L29.23,145a0.72,0.72,0,0,0-.73,1.23l1.95,1.16a2.59,2.59,0,0,0,2.48,0l1.08-.64a1.17,1.17,0,0,1,1,0l1.08,0.64a2.59,2.59,0,0,0,2.48,0l1.08-.64a1.17,1.17,0,0,1,1,0l1.08,0.64a2.59,2.59,0,0,0,2.48,0l1.08-.64a1.17,1.17,0,0,1,1,0l1.08,0.64a2.59,2.59,0,0,0,2.48,0l1.95-1.16A0.72,0.72,0,0,0,52,145.29Z"/><path class="cls-3" d="M52,148a0.72,0.72,0,0,0-1-.25L49.12,149a1.18,1.18,0,0,1-1,0L47,148.31a2.59,2.59,0,0,0-2.48,0l-1.08.64a1.18,1.18,0,0,1-1,0l-1.08-.64a2.59,2.59,0,0,0-2.48,0l-1.08.64a1.18,1.18,0,0,1-1,0l-1.08-.64a2.59,2.59,0,0,0-2.48,0l-1.08.64a1.18,1.18,0,0,1-1,0l-1.95-1.16A0.72,0.72,0,0,0,28.5,149l1.95,1.16a2.6,2.6,0,0,0,2.48,0l1.08-.64a1.17,1.17,0,0,1,1,0l1.08,0.64a2.6,2.6,0,0,0,2.48,0l1.08-.64a1.17,1.17,0,0,1,1,0l1.08,0.64a2.59,2.59,0,0,0,2.48,0l1.08-.64a1.17,1.17,0,0,1,1,0l1.08,0.64a2.6,2.6,0,0,0,2.48,0L51.8,149A0.72,0.72,0,0,0,52,148Z"/></g><g class="cls-2"><path class="cls-3" d="M231.44,108.72a0.69,0.69,0,0,0-.89-0.4l-1.81.69a2.3,2.3,0,0,1-1.33,0l-0.89-.34a3.64,3.64,0,0,0-2.32,0l-0.89.34a2.32,2.32,0,0,1-1.33,0l-0.89-.34a3.64,3.64,0,0,0-2.32,0l-0.89.34a2.3,2.3,0,0,1-1.33,0l-0.89-.34a3.64,3.64,0,0,0-2.32,0l-0.89.34a2.3,2.3,0,0,1-1.33,0l-1.8-.69a0.69,0.69,0,0,0-.49,1.29l1.8,0.69a3.63,3.63,0,0,0,2.32,0l0.89-.34a2.31,2.31,0,0,1,1.33,0l0.89,0.34a3.63,3.63,0,0,0,2.32,0l0.89-.34a2.31,2.31,0,0,1,1.33,0l0.89,0.34a3.62,3.62,0,0,0,2.32,0l0.89-.34a2.32,2.32,0,0,1,1.33,0l0.89,0.34a3.64,3.64,0,0,0,2.32,0l1.8-.69A0.69,0.69,0,0,0,231.44,108.72Z"/><path class="cls-3" d="M231.69,98.55H227.4V94.69a0.69,0.69,0,0,0-.69-0.69h-6.25l-1.24-4.49a0.69,0.69,0,0,0-.66-0.51h-2.18a0.69,0.69,0,0,0-.67.87L216.85,94H214.2a0.69,0.69,0,0,0-.69.69v3.86h-2.24a0.69,0.69,0,0,0-.69.69v7l-1.26-.48a0.69,0.69,0,1,0-.49,1.29l1.8,0.69a3.64,3.64,0,0,0,2.32,0l0.89-.34a2.3,2.3,0,0,1,1.33,0l0.89,0.34a3.64,3.64,0,0,0,2.32,0l0.89-.34a2.31,2.31,0,0,1,1.33,0l0.89,0.34a3.62,3.62,0,0,0,2.32,0l0.89-.34a2.3,2.3,0,0,1,1.33,0l0.89,0.34a3.64,3.64,0,0,0,2.32,0L231,107a0.69,0.69,0,1,0-.49-1.29l-1.81.69-0.1,0,3.65-6.9A0.69,0.69,0,0,0,231.69,98.55ZM218,90.38L219,94h-0.75l-1-3.62H218Zm-3.14,5H226v3.18H214.89V95.38Zm12.27,11-0.63-.24a3.63,3.63,0,0,0-2.32,0l-0.89.34a2.32,2.32,0,0,1-1.33,0l-0.89-.34a3.63,3.63,0,0,0-2.32,0l-0.89.34a2.31,2.31,0,0,1-1.33,0l-0.89-.34a3.63,3.63,0,0,0-2.32,0l-0.89.34a1.76,1.76,0,0,1-.49.09V99.93h18.59Z"/><rect class="cls-3" x="212.99" y="100.95" width="1.38" height="1.38"/><polygon class="cls-3" points="216.25 102.33 217.63 102.33 217.63 100.95 216.24 100.95 216.25 102.33"/><polygon class="cls-3" points="219.51 102.33 220.89 102.33 220.89 100.95 219.5 100.95 219.51 102.33"/><polygon class="cls-3" points="222.77 102.33 224.15 102.33 224.15 100.95 222.76 100.95 222.77 102.33"/><rect class="cls-3" x="226.02" y="100.95" width="1.38" height="1.38"/><rect class="cls-3" x="215.66" y="96.27" width="1.38" height="1.38"/><polygon class="cls-3" points="221.35 97.65 222.72 97.65 222.72 96.27 221.34 96.27 221.35 97.65"/><polygon class="cls-3" points="218.5 97.65 219.88 97.65 219.88 96.27 218.49 96.27 218.5 97.65"/><rect class="cls-3" x="224.18" y="96.27" width="1.38" height="1.38"/></g><g class="cls-2"><path class="cls-3" d="M167.54,179.61a4.12,4.12,0,0,0,4.21,4c1.9,0,4.26-.72,4.92-2.05a3.2,3.2,0,0,1,.87-1.13,3.21,3.21,0,0,1,.87,1.13c0.65,1.33,3,2.05,4.92,2.05a4.12,4.12,0,0,0,4.21-4c0-2.21-2.36-4-5.26-4h-9.46C169.9,175.6,167.54,177.4,167.54,179.61Zm5.26-2.43h9.46c2,0,3.68,1.11,3.68,2.43a2.54,2.54,0,0,1-2.63,2.43c-1.79,0-3.27-.69-3.5-1.17-0.37-.76-1.28-2.05-2.29-2.05s-1.91,1.29-2.29,2.05c-0.23.48-1.71,1.17-3.5,1.17a2.54,2.54,0,0,1-2.63-2.43C169.12,178.29,170.81,177.18,172.81,177.18Z"/><path class="cls-3" d="M190.75,167.9a0.79,0.79,0,0,0-.79.79v19.38c0,1.26-1.92,2.36-4.11,2.36-2.7,0-4.11-.9-4.11-1.2V188h1.05a0.79,0.79,0,0,0,0-1.58h-3.68a0.79,0.79,0,0,0,0,1.58h1.05v1.21c0,1.83,2.86,2.78,5.69,2.78,3.19,0,5.69-1.73,5.69-3.93V168.69A0.79,0.79,0,0,0,190.75,167.9Z"/></g><g class="cls-2"><path class="cls-3" d="M194.2,63.86a3.64,3.64,0,1,0,3.64,3.64A3.64,3.64,0,0,0,194.2,63.86Zm0,5.83a2.19,2.19,0,1,1,2.19-2.19A2.19,2.19,0,0,1,194.2,69.7Z"/><path class="cls-3" d="M207.27,63.86a3.64,3.64,0,1,0,3.64,3.64A3.64,3.64,0,0,0,207.27,63.86Zm0,5.83a2.19,2.19,0,1,1,2.19-2.19A2.19,2.19,0,0,1,207.27,69.7Z"/><path class="cls-3" d="M191.43,64.61l0.38-.32a4,4,0,0,1,6.41,3.21,0.73,0.73,0,0,0,.73.73h3.6a0.73,0.73,0,0,0,.73-0.73,4,4,0,0,1,8,0,0.73,0.73,0,1,0,1.45,0,5.44,5.44,0,0,0-.2-1.46V64.82c0-4.46,0-7.69-1.89-9.62a5,5,0,0,0-1.32-.93v-1.4h1.78a0.88,0.88,0,0,0,.73-0.39c0.4-.58.11-1.65-0.2-2.44-0.59-1.5-3.44-2.3-5.84-2.3A17.78,17.78,0,0,0,198,49.68c-2.85,1.74-2.72,2.2-2.61,2.61a0.81,0.81,0,0,0,.81.58H201v1.27c-3,1.06-4.81,3.23-6.59,5.36a27.65,27.65,0,0,1-3.5,3.67c-0.14.11-.26,0.23-0.4,0.34l0,0v0a5.44,5.44,0,0,0-1.69,3.94,0.73,0.73,0,1,0,1.45,0A4,4,0,0,1,191.43,64.61Zm11-11.74h5.44v0.88a12.05,12.05,0,0,0-2.75-.28,13.26,13.26,0,0,0-2.69.27V52.87Zm-4.5-1.45,0.78-.5a16.36,16.36,0,0,1,7.08-1.74c2.37,0,4.27.83,4.49,1.38a5.06,5.06,0,0,1,.26.85H197.93Zm-2.43,9c2.47-3,4.6-5.51,9.62-5.51,2.18,0,3.61.41,4.49,1.3,1.35,1.35,1.47,3.9,1.47,7.38a5.46,5.46,0,0,0-9.23,3.18h-2.24A5.47,5.47,0,0,0,194.2,62h-0.09C194.59,61.51,195.05,61,195.5,60.43Z"/><path class="cls-3" d="M196.84,61.76a6.23,6.23,0,0,1,1.64,1,0.72,0.72,0,0,0,.46.17h4.21a0.72,0.72,0,0,0,.46-0.17,6.32,6.32,0,0,1,6-1.09,0.73,0.73,0,0,0,1-.72c-0.12-2.21-.48-3.46-1.21-4.19s-2-1.08-4-1.08l-0.57,0-0.11,0a0.69,0.69,0,0,0-.17,0c-5.63.34-7.65,4-8.15,5.11A0.72,0.72,0,0,0,196.84,61.76Zm11.54-4a4.25,4.25,0,0,1,.71,2.24,7.73,7.73,0,0,0-3.6.17V57.11C207.44,57.12,208.14,57.52,208.38,57.76ZM204,57.19v3.56a7.41,7.41,0,0,0-1.13.71h-3.7a7.73,7.73,0,0,0-1.1-.72A7.43,7.43,0,0,1,204,57.19Z"/></g><g class="cls-2"><path class="cls-3" d="M157.71,149.07a9.11,9.11,0,0,0,6.81-3.23l0.08,0a2.86,2.86,0,0,1,1.67-.66,7.8,7.8,0,0,0,2.25-.67c2.05-1,3-2.81,2.48-4.59a2.54,2.54,0,0,0-1.94-1.84,3.15,3.15,0,0,0-1.55.08c0-.18,0-0.36,0-0.55a0.69,0.69,0,0,0-.69-0.69H148.57a0.69,0.69,0,0,0-.69.69C147.88,143.91,152.29,149.07,157.71,149.07Zm11.07-9.68a1.16,1.16,0,0,1,.89.89c0.41,1.33-.65,2.39-1.77,2.94a6.51,6.51,0,0,1-1.88.55H166a12.59,12.59,0,0,0,1.39-4.06A1.87,1.87,0,0,1,168.78,139.39Zm-2.65-1.13c-0.3,5.25-4,9.42-8.42,9.42s-8.12-4.17-8.42-9.42h16.85Z"/><path class="cls-3" d="M157.71,151.56a86.41,86.41,0,0,0,9.66-.55,0.69,0.69,0,0,0-.16-1.38,84.18,84.18,0,0,1-19,0A0.69,0.69,0,0,0,148,151,86.42,86.42,0,0,0,157.71,151.56Z"/><path class="cls-3" d="M158.63,131.35a2.56,2.56,0,0,0,.15-2.4l-0.51-1a0.7,0.7,0,0,0-1.24.63l0.51,1a1.19,1.19,0,0,1-.06,1l-0.69,1a2.6,2.6,0,0,0-.17,2.39l0.81,1.68a0.69,0.69,0,0,0,.63.39,0.7,0.7,0,0,0,.63-1l-0.81-1.68a1.23,1.23,0,0,1,.07-1Z"/><path class="cls-3" d="M160.07,132.28a2.69,2.69,0,0,0-.13,2.39l0.48,1a0.69,0.69,0,0,0,1.25-.6l-0.48-1a1.32,1.32,0,0,1,.06-1.05l0.06-.09a2.78,2.78,0,0,0,.28-2.24l-0.3-.78a0.69,0.69,0,0,0-1.3.5l0.3,0.78a1.43,1.43,0,0,1-.16,1Z"/><path class="cls-3" d="M153.82,132.28a2.69,2.69,0,0,0-.13,2.39l0.48,1a0.69,0.69,0,0,0,.63.39,0.7,0.7,0,0,0,.63-1l-0.48-1A1.32,1.32,0,0,1,155,133l0.06-.09a2.77,2.77,0,0,0,.28-2.24l-0.3-.78a0.69,0.69,0,0,0-1.3.5l0.3,0.78a1.44,1.44,0,0,1-.16,1Z"/></g><g class="cls-2"><path class="cls-3" d="M93,172.75v10.18a8.29,8.29,0,0,0,.35,2.18l0.79,2.43a2,2,0,0,0,.29.55L93.29,191a0.71,0.71,0,0,0,.4.92,0.7,0.7,0,0,0,.26,0,0.71,0.71,0,0,0,.66-0.45l1-2.59a1.93,1.93,0,0,0,.5.07h9.19a1.93,1.93,0,0,0,.5-0.07l1,2.59a0.71,0.71,0,0,0,.66.45,0.69,0.69,0,0,0,.26,0,0.71,0.71,0,0,0,.4-0.92l-1.12-2.9a1.93,1.93,0,0,0,.29-0.55l0.79-2.43a8.28,8.28,0,0,0,.35-2.18v-2.69h0v-7.49a1.72,1.72,0,0,0-1.71-1.71h-3.92a2.25,2.25,0,1,0-4.17,0H94.69A1.72,1.72,0,0,0,93,172.75Zm4.84,8.2,2.4,2.28a0.67,0.67,0,0,0,.14.09l0.08,0.05a0.68,0.68,0,0,0,.53,0l0.08-.05a0.67,0.67,0,0,0,.14-0.09l2.4-2.28H107v2a7.05,7.05,0,0,1-.21,1.5H94.61a7.06,7.06,0,0,1-.21-1.5v-2h3.42Zm-2.35,6.15-0.41-1.25h1.61v1.71H96.11A0.78,0.78,0,0,1,95.47,187.1Zm2.62-1.25h0.8v1.71h-0.8v-1.71Zm2.22,0h0.8v1.71h-0.8v-1.71Zm2.22,0h0.8v1.71h-0.8v-1.71Zm2.22,1.71v-1.71h1.61l-0.41,1.25a0.78,0.78,0,0,1-.64.47h-0.56Zm2-15.11a0.3,0.3,0,0,1,.3.29v6.78h-3.71l-0.1,0-0.17,0a0.79,0.79,0,0,0-.15.09l-0.08.05-1.4,1.34v-8.61h5.3Zm-6-3.08a0.83,0.83,0,1,1-.83.83A0.83,0.83,0,0,1,100.71,169.37ZM100,172.45v8.61l-1.4-1.34-0.08,0a0.72,0.72,0,0,0-.15-0.09l-0.16,0-0.1,0H94.4v-6.78a0.3,0.3,0,0,1,.3-0.29H100Z"/><rect class="cls-3" x="95.7" y="182.01" width="1.42" height="1.42"/><rect class="cls-3" x="104.29" y="182.01" width="1.42" height="1.42"/></g><g class="cls-2"><path class="cls-3" d="M151.67,175.87L149.79,174a1.47,1.47,0,0,0-.28-0.22,3.12,3.12,0,0,0-1.7-.6H130a1.53,1.53,0,0,0-1.53,1.52v10.51a1.53,1.53,0,0,0,1.53,1.52h21a1.53,1.53,0,0,0,1.52-1.52v-7.36a3.12,3.12,0,0,0-.6-1.69A1.51,1.51,0,0,0,151.67,175.87Zm-1.34.45H149.6a0.27,0.27,0,0,1-.26-0.26v-0.73Zm0.89,8.89a0.27,0.27,0,0,1-.26.26h-3.54a0.69,0.69,0,0,0-1.37,0H130a0.27,0.27,0,0,1-.26-0.26V174.7a0.27,0.27,0,0,1,.26-0.26h16a0.68,0.68,0,0,0,.19.45,0.69,0.69,0,0,0,.49.2,0.7,0.7,0,0,0,.49-0.2,0.68,0.68,0,0,0,.19-0.45h0.4a1.19,1.19,0,0,1,.28,0,1.59,1.59,0,0,0,0,.22v1.36a1.53,1.53,0,0,0,1.52,1.52H151l0.22,0a1.24,1.24,0,0,1,0,.28v7.36Z"/><circle class="cls-3" cx="146.73" cy="177.17" r="0.69"/><path class="cls-3" d="M146.73,182a0.69,0.69,0,1,0,.69.69A0.69,0.69,0,0,0,146.73,182Z"/><circle class="cls-3" cx="146.73" cy="179.95" r="0.69"/><path class="cls-3" d="M143.51,178.05h-1.16L140,175.71a0.63,0.63,0,1,0-.89.89l1.45,1.45h-3.44l-0.86-.86a0.63,0.63,0,0,0-.89.89l0.47,0.47a0.61,0.61,0,0,0,0,.13,0.6,0.6,0,0,0,0,.13l-0.47.47a0.63,0.63,0,0,0,.89.89l0.86-.86h3.44l-1.45,1.46a0.63,0.63,0,1,0,.89.89l2.35-2.35h1.16A0.63,0.63,0,0,0,143.51,178.05Z"/><path class="cls-3" d="M134.47,179a0.32,0.32,0,0,0,0-.63h-3.9a0.32,0.32,0,1,0,0,.63h3.9Z"/><path class="cls-3" d="M130.56,181.81a0.63,0.63,0,0,0,.63.63H136a0.63,0.63,0,1,0,0-1.26H131.2A0.63,0.63,0,0,0,130.56,181.81Z"/><path class="cls-3" d="M141.45,183.22H131.2a0.63,0.63,0,0,0,0,1.26h10.25A0.63,0.63,0,1,0,141.45,183.22Z"/></g><g class="cls-2"><path class="cls-3" d="M73.1,151.56H85.87a2.63,2.63,0,0,0,2.62-2.63V132.84a2.63,2.63,0,0,0-2.62-2.62H85.77v-0.46A2.11,2.11,0,0,0,83,127.64l-10.11,2.6,0,0-0.13.06-0.1.07-0.09.1-0.07.11a0.94,0.94,0,0,0-.07.26s0,0,0,0v20A0.68,0.68,0,0,0,73.1,151.56Zm12.78-20a1.26,1.26,0,0,1,1.26,1.26v16.09a1.26,1.26,0,0,1-1.26,1.26H73.78v-18.6H85.87ZM83.37,129a0.75,0.75,0,0,1,1,.79v0.46H78.5Z"/><path class="cls-3" d="M80.46,144.32a5.43,5.43,0,0,0,5.4-6.28,0.5,0.5,0,0,0,0-.33h0A5.47,5.47,0,1,0,80.46,144.32Zm-1.79-7.46a8.82,8.82,0,0,0,1.27.16v1.51a11.39,11.39,0,0,1-1.57-.17A6.24,6.24,0,0,1,78.67,136.86Zm2.3-2.1a5.12,5.12,0,0,1,.85,1.14,7.69,7.69,0,0,1-.85.1v-1.24Zm1.57,3.61a11.39,11.39,0,0,1-1.57.17V137a8.72,8.72,0,0,0,1.28-.16A6.27,6.27,0,0,1,82.54,138.37Zm2.36,0.49a4.43,4.43,0,0,1-.11,1,6.78,6.78,0,0,1-1.39.69,7.37,7.37,0,0,0,.17-1.32,9.79,9.79,0,0,0,1.32-.45S84.9,138.82,84.9,138.85Zm-2.65,2A8.81,8.81,0,0,1,81,141v-1.42a12.5,12.5,0,0,0,1.56-.15A6.26,6.26,0,0,1,82.25,140.84ZM79.94,143a5.07,5.07,0,0,1-.77-1c0.25,0,.51.05,0.77,0.07V143Zm1-.93,0.77-.06a5.12,5.12,0,0,1-.77,1V142Zm-1-6a7.85,7.85,0,0,1-.85-0.1,5.09,5.09,0,0,1,.85-1.14V136Zm0,3.58V141a8.81,8.81,0,0,1-1.28-.16,6.23,6.23,0,0,1-.28-1.41A12.67,12.67,0,0,0,79.94,139.57Zm-2.43.92a6.79,6.79,0,0,1-1.39-.7,4.44,4.44,0,0,1-.1-0.95s0-.08,0-0.12a9.59,9.59,0,0,0,1.32.45A7.41,7.41,0,0,0,77.51,140.5Zm-0.76.8a8.52,8.52,0,0,0,1.15.4,6.54,6.54,0,0,0,.64,1.16A4.47,4.47,0,0,1,76.75,141.3Zm5.62,1.56a6.59,6.59,0,0,0,.64-1.15,8.72,8.72,0,0,0,1.15-.39A4.47,4.47,0,0,1,82.36,142.86Zm1.18-4.73a7.26,7.26,0,0,0-.32-1.53,6.59,6.59,0,0,0,.82-0.35,4.43,4.43,0,0,1,.69,1.43A8.25,8.25,0,0,1,83.55,138.13Zm-0.23-2.66-0.48.18a6.53,6.53,0,0,0-.48-0.8A4.47,4.47,0,0,1,83.32,135.47Zm-4.78-.62a6.35,6.35,0,0,0-.47.79l-0.47-.18A4.42,4.42,0,0,1,78.54,134.85Zm-1.67,1.39a6.44,6.44,0,0,0,.81.35,7.27,7.27,0,0,0-.32,1.53,8.06,8.06,0,0,1-1.18-.45A4.41,4.41,0,0,1,76.87,136.24Z"/><path class="cls-3" d="M81.73,146.57c-0.22,0-.49,0-0.49-0.28a0.45,0.45,0,0,1,.49-0.28,0.54,0.54,0,0,1,.47.21,0.51,0.51,0,0,0,.9-0.49,1.56,1.56,0,0,0-1.37-.74,1.42,1.42,0,0,0-1.52,1.31,1.34,1.34,0,0,0,1.52,1.31c0.6,0,.6.36,0.6,0.48a0.56,0.56,0,0,1-.6.48,0.61,0.61,0,0,1-.56-0.31,0.51,0.51,0,0,0-.93.45,1.64,1.64,0,0,0,1.48.89,1.57,1.57,0,0,0,1.62-1.51A1.48,1.48,0,0,0,81.73,146.57Z"/><path class="cls-3" d="M83.36,146.29a1.34,1.34,0,0,0,1.52,1.31c0.6,0,.6.36,0.6,0.48a0.55,0.55,0,0,1-.6.48,0.61,0.61,0,0,1-.56-0.31,0.51,0.51,0,0,0-.93.45,1.63,1.63,0,0,0,1.48.89,1.57,1.57,0,0,0,1.62-1.51,1.48,1.48,0,0,0-1.62-1.51c-0.22,0-.49,0-0.49-0.28a0.45,0.45,0,0,1,.49-0.28,0.54,0.54,0,0,1,.47.21,0.51,0.51,0,0,0,.9-0.49,1.55,1.55,0,0,0-1.37-.74A1.42,1.42,0,0,0,83.36,146.29Z"/><path class="cls-3" d="M79.16,145.41a0.51,0.51,0,0,0-1,0l-1,3.52a0.51,0.51,0,1,0,1,.29l0.16-.56H79l0.16,0.56a0.51,0.51,0,0,0,.49.37l0.14,0a0.51,0.51,0,0,0,.35-0.64Zm-0.57,2.23,0.08-.26,0.08,0.26H78.59Z"/><path class="cls-3" d="M75,149.59a0.51,0.51,0,0,0,.51-0.51v-1.62h1.08a1.21,1.21,0,0,0,0-2.41H75a0.51,0.51,0,0,0-.51.51v3.52A0.51,0.51,0,0,0,75,149.59Zm0.51-3.52h1.08a0.19,0.19,0,0,1,0,.36H75.55v-0.36Z"/></g><g class="cls-2"><path class="cls-3" d="M31.32,178.09l-4.24,1L26.73,179l-0.09.26-0.2.55c-0.17.46-.33,0.87-0.48,1.25l-2.64,8.4-6-3.67,3-3.39C20.16,182,20,181.53,19.76,181l-3.93,4.39-3.54,2.16L18,181.13l1.61-.57-0.3-.78-0.17-.48-1.76.62a0.67,0.67,0,0,0-.28.19L8.31,190a0.67,0.67,0,0,0,.86,1l7.1-4.32,7.1,4.32,0.09,0,0.06,0a0.67,0.67,0,0,0,.2,0h0l0.17,0,0.05,0,0.11,0h0l7.45-4.54a0.68,0.68,0,0,0,.32-0.55l0.3-7.17A0.68,0.68,0,0,0,31.32,178.09Zm-0.81,7.44L24.9,189l2.71-8.63,3.15-.72Z"/><path class="cls-3" d="M22.87,184.36c1.85,0,4.57-9.39,4.57-11a4.57,4.57,0,0,0-9.14,0C18.3,175,21,184.36,22.87,184.36Zm0-14.24a3.22,3.22,0,0,1,3.22,3.22c0,1.88-2.23,8-3.22,9.47-1-1.43-3.22-7.59-3.22-9.47A3.22,3.22,0,0,1,22.87,170.12Z"/><path class="cls-3" d="M25.1,173.34a2.23,2.23,0,1,0-2.23,2.23A2.23,2.23,0,0,0,25.1,173.34Zm-3.11,0a0.88,0.88,0,1,1,.88.88A0.88,0.88,0,0,1,22,173.34Z"/></g><path class="cls-1" d="M120,232.06a11.15,11.15,0,0,0,.93-22.27l0,0v0c-0.3,0-.59,0-0.89,0s-0.6,0-.89,0v0l0,0A11.15,11.15,0,0,0,120,232.06ZM115,221.47h4.33v2.79c-1.34,0-2.64.1-3.87,0.25A13.92,13.92,0,0,1,115,221.47Zm0.45-4.18c1.23,0.14,2.53.22,3.87,0.25v2.7H115A14,14,0,0,1,115.48,217.29Zm9.43,3h-4.32v-2.7c1.34,0,2.64-.1,3.88-0.24A13.85,13.85,0,0,1,124.91,220.25Zm-0.45,4.26c-1.23-.14-2.54-0.22-3.87-0.24v-2.79h4.33A14,14,0,0,1,124.46,224.5Zm-3.87,1c1.21,0,2.38.09,3.49,0.2a11.59,11.59,0,0,1-3.49,5v-5.2Zm-1.23,0v5.2a11.58,11.58,0,0,1-3.49-5C117,225.59,118.15,225.52,119.35,225.5Zm3.27,5a13.28,13.28,0,0,0,2.71-4.6,24.43,24.43,0,0,1,2.87.59A10,10,0,0,1,122.62,230.46Zm6.22-5.12a24.68,24.68,0,0,0-3.15-.67,15.19,15.19,0,0,0,.46-3.19h3.73A9.84,9.84,0,0,1,128.84,225.34Zm-2.7-5.09a15.27,15.27,0,0,0-.45-3.1,24.62,24.62,0,0,0,3.15-.67,9.85,9.85,0,0,1,1,3.77h-3.72Zm2.07-4.88a24.1,24.1,0,0,1-2.87.58,13.23,13.23,0,0,0-2.71-4.6A10,10,0,0,1,128.2,215.37Zm-4.12.74c-1.12.12-2.29,0.19-3.5,0.2v-5.2A11.55,11.55,0,0,1,124.08,216.11Zm-4.73-5v5.2c-1.21,0-2.38-.09-3.49-0.21A11.55,11.55,0,0,1,119.35,211.11Zm-2,.24a13.21,13.21,0,0,0-2.7,4.59,23.85,23.85,0,0,1-2.86-.59A10,10,0,0,1,117.31,211.35Zm-6,4.77-0.1.34a24.26,24.26,0,0,0,3.08.66,15.25,15.25,0,0,0-.46,3.11h-3.72A9.86,9.86,0,0,1,111.27,216.12Zm-1.2,5.35h3.73a15.16,15.16,0,0,0,.46,3.2,24.27,24.27,0,0,0-3.08.66l0.1,0.34A9.86,9.86,0,0,1,110.07,221.47Zm4.54,4.39a13.24,13.24,0,0,0,2.7,4.59,10,10,0,0,1-5.57-4A24.07,24.07,0,0,1,114.61,225.87Z"/><g class="cls-2"><path class="cls-3" d="M149.92,228h2.25a8,8,0,0,0,12.94,0h5.43a1.69,1.69,0,0,0,1.69-1.69V214.65a1.69,1.69,0,0,0-1.69-1.69h-0.85v-0.15a1.62,1.62,0,0,0-1.69-1.55h-2.28a1.62,1.62,0,0,0-1.69,1.55V213h-2.74v-1.4a1.69,1.69,0,0,0-1.69-1.69h-3.67a1.69,1.69,0,0,0-1.69,1.69V213h-4.33a1.69,1.69,0,0,0-1.69,1.69v11.64A1.69,1.69,0,0,0,149.92,228Zm8.72,1.91a6.6,6.6,0,1,1,6.6-6.6A6.61,6.61,0,0,1,158.64,229.9Zm6.79-17.08a0.28,0.28,0,0,1,.29-0.15H168a0.29,0.29,0,0,1,.29.15V213h-2.86v-0.15Zm-9.79-1.25a0.3,0.3,0,0,1,.29-0.29h3.67a0.3,0.3,0,0,1,.29.29V213h-4.25v-1.4Zm-6,3.09a0.3,0.3,0,0,1,.29-0.29h20.62a0.3,0.3,0,0,1,.29.29v11.64a0.3,0.3,0,0,1-.29.29h-4.61a8,8,0,1,0-14.57,0h-1.44a0.3,0.3,0,0,1-.29-0.29V214.65Z"/><path class="cls-3" d="M158.64,227.28h-0.2a4,4,0,0,1-2-7.27l0.17-.12a0.7,0.7,0,0,0-.73-1.19,5.39,5.39,0,0,0,2.81,10A0.7,0.7,0,0,0,158.64,227.28Z"/><path class="cls-3" d="M150.93,216.9h1.83a0.7,0.7,0,1,0,0-1.4h-1.83A0.7,0.7,0,0,0,150.93,216.9Z"/><path class="cls-3" d="M168.47,225.74h1a0.7,0.7,0,1,0,0-1.4h-1A0.7,0.7,0,1,0,168.47,225.74Z"/></g><path class="cls-1" d="M150.1,258.71a5,5,0,0,0-2.12.48l-1.85-2.69,0.66-1.36h0.87a0.79,0.79,0,0,0,0-1.58h-3.25a0.79,0.79,0,1,0,0,1.58H145l-0.31.64h-8.89l0.54-1.16a0.79,0.79,0,0,0-.72-1.12c-0.29,0-.43-0.12-0.4-0.25a0.63,0.63,0,0,1,.41-0.1h3.24a0.79,0.79,0,0,0,0-1.58h-3.24a2.14,2.14,0,0,0-1.44.48,1.65,1.65,0,0,0-.57,1.24,1.75,1.75,0,0,0,.9,1.5l-1.92,4.09a4.92,4.92,0,0,0-1.3-.18,5,5,0,1,0,2.74.83l0.8-1.72L140,262a2.38,2.38,0,0,0,4.38,1.85l0.79,0.09A5,5,0,1,0,150.1,258.71Zm-15.37,5a3.39,3.39,0,1,1-3.39-3.39,3.45,3.45,0,0,1,.62.06l-1.33,2.85a0.79,0.79,0,0,0,.38,1.05,0.8,0.8,0,0,0,.34.07,0.79,0.79,0,0,0,.72-0.46l1.34-2.87A3.38,3.38,0,0,1,134.73,263.69Zm13.74-1-1.55-.17a3.38,3.38,0,0,1,.67-1.11Zm-11.66-5.35H144l-1.49,3.07-0.27,0a2.37,2.37,0,0,0-1.24.36Zm5.4,6.25a0.81,0.81,0,1,1,.81-0.81A0.81,0.81,0,0,1,142.21,263.61Zm2.33-1.34a2.4,2.4,0,0,0-.63-1.15l1.44-3,1.34,1.95a5,5,0,0,0-1.36,2.26Zm5.57,4.82a3.39,3.39,0,0,1-3.35-3l3.26,0.37h0.09a0.78,0.78,0,0,0,.26,0l0.08,0,0.1-.05,0,0a0.79,0.79,0,0,0,.13-0.13l0.07-.09a0.78,0.78,0,0,0,.06-0.15,0.76,0.76,0,0,0,0-.13v0a1.07,1.07,0,0,0,0-.11,0.81,0.81,0,0,0,0-.17,0.82,0.82,0,0,0-.06-0.15,1,1,0,0,0,0-.1l-1.86-2.71a3.36,3.36,0,0,1,1.21-.23A3.39,3.39,0,0,1,150.1,267.08Z"/><path class="cls-1" d="M169,271.41a0.71,0.71,0,0,0,.71.71h22.5a0.71,0.71,0,0,0,0-1.41h-3.07l-3.48-4.13-1.82-3.85-2.18-11.8v-2.1a0.71,0.71,0,0,0-1.41,0v2.1l-2.18,11.8-1.82,3.85-3.48,4.13h-3.07A0.71,0.71,0,0,0,169,271.41Zm12-16.54,0.64,3.47h-1.28Zm0,8.75-1.2-.84h2.4Zm1.82,3a10.93,10.93,0,0,0-3.65,0l1.82-1.28Zm-0.6-2.15,0.7-.49,0.7,1.48Zm-0.33-4.73,0.3,1.62h-2.4l0.3-1.62h1.8ZM179,264l0.7,0.49-1.4,1Zm-3.89,6.71c0.57-1.58,3-2.81,5.81-2.81s5.24,1.23,5.81,2.81H175.16Z"/><path class="cls-1" d="M31,350.84H25.82l0.33-3.48a0.7,0.7,0,0,0-.63-0.76H25.43l0.31-3.23a0.7,0.7,0,0,0-.16-0.51,0.67,0.67,0,0,0-.26-0.19l0.31-3.27a0.69,0.69,0,0,0-.24-0.58l0.32-3.37a0.7,0.7,0,0,0-.63-0.76l-0.34,0,0.31-3.23a0.7,0.7,0,0,0-.63-0.76l-1.69-.16L22.89,329a0.7,0.7,0,0,0-1.39-.13l-0.14,1.51-1.69-.16a0.7,0.7,0,0,0-.76.63l-0.31,3.23-0.34,0a0.7,0.7,0,0,0-.76.63L17.17,338l-0.09,0a0.69,0.69,0,0,0-.25.47l-0.31,3.27a0.69,0.69,0,0,0-.54.6l-0.31,3.23H15.58a0.7,0.7,0,0,0-.76.63l-0.44,4.57H8.78a0.7,0.7,0,0,0,0,1.39H31A0.7,0.7,0,0,0,31,350.84ZM23.17,344a0.7,0.7,0,0,0-.76.63l-0.16,1.69-1-.1,0.16-1.69a0.7,0.7,0,1,0-1.39-.13L19.86,346l-1-.1L19,344.26a0.7,0.7,0,1,0-1.39-.13l-0.16,1.69-0.41,0,0.24-2.53,3.49,0.33h0l2.11,0.2h0l1.37,0.13L24,346.45l-0.41,0,0.16-1.69A0.7,0.7,0,0,0,23.17,344Zm-4-4.48h0l1.94,0.19h0l3,0.29-0.24,2.53-0.21,0,0.16-1.69a0.7,0.7,0,1,0-1.39-.13l-0.16,1.69-0.73-.07,0.16-1.69a0.7,0.7,0,0,0-1.39-.13l-0.16,1.69-0.73-.07,0.16-1.69a0.7,0.7,0,1,0-1.39-.13l-0.16,1.69-0.21,0,0.24-2.53Zm1-7.81,1.69,0.16h0L23.61,332l-0.24,2.53H23.22l0.16-1.69a0.7,0.7,0,0,0-1.39-.13l-0.16,1.69-0.3,0,0.16-1.69a0.7,0.7,0,0,0-1.39-.13l-0.16,1.69-0.15,0Zm-1.07,3.85h0l1.54,0.15h0l1.68,0.16h0L23.93,336h0l0.33,0L24,338.54H23.95l0.16-1.69a0.7,0.7,0,0,0-1.39-.13l-0.16,1.69L22,338.34l0.16-1.69a0.7,0.7,0,1,0-1.39-.13l-0.16,1.69L20,338.15l0.16-1.69a0.7,0.7,0,1,0-1.39-.13L18.66,338H18.57l0.24-2.53,0.34,0h0Zm4.29,12.6a0.69,0.69,0,0,0-.76.63l-0.2,2.09H22l0.2-2.08a0.7,0.7,0,0,0-1.39-.13l-0.21,2.21H20l0.21-2.21a0.7,0.7,0,0,0-1.39-.13l-0.23,2.34H17.86l0.22-2.35a0.7,0.7,0,1,0-1.39-.13l-0.24,2.48H15.78l0.36-3.74h0.09l1.8,0.17h0l2.39,0.23h0l2.38,0.23h0l1.79,0.17H24.7l-0.28,2.92H23.89l0.19-2A0.7,0.7,0,0,0,23.45,348.12Z"/><path class="cls-1" d="M91.37,232.39a0.69,0.69,0,0,0-.69-0.69H82.18V219.08h0.15a0.69,0.69,0,0,0,.69-0.69V213a0.69,0.69,0,0,0-.68-0.69l-2.09-3.87a0.69,0.69,0,0,0-1.22,0l-2.09,3.87a0.69,0.69,0,0,0-.68.69v5.38a0.69,0.69,0,0,0,.69.69h0.15V231.7H68.61a0.69,0.69,0,0,0,0,1.38H90.67A0.69,0.69,0,0,0,91.37,232.39Zm-12.87-6.33H79V228H78.49v-1.92Zm0-3.3H79v1.92H78.49v-1.92Zm1.15-6.33a0.72,0.72,0,1,1,.72-0.72A0.72,0.72,0,0,1,79.64,216.42Zm2-.09v1.37H80.27A2.1,2.1,0,0,0,81.64,216.33ZM79,217.7H77.65v-1.37A2.1,2.1,0,0,0,79,217.7Zm-0.53,3.67v-2.13H80.8v2.13H78.49Zm2.31,3.3H80.34v-1.92H80.8v1.92Zm-0.46,1.38H80.8V228H80.34v-1.92Zm1.31-11a2.1,2.1,0,0,0-1.37-1.37h1.37v1.37Zm-4,0V213.7H79A2.1,2.1,0,0,0,77.65,215.07Zm3.15,16.42H78.49v-2.13H80.8v2.13Zm-1.15-21.26,1.13,2.09H78.52Z"/><g class="cls-2"><path class="cls-3" d="M216.4,270.76v0.71a0.64,0.64,0,0,0,1.29,0v-0.71h7.18v0.71a0.64,0.64,0,1,0,1.29,0v-0.71a1.55,1.55,0,0,0,1.52-1.55V255.79a1.56,1.56,0,0,0-1.55-1.55h-2.29v-3.3h-1.29v3.3H220v-3.3h-1.29v3.3h-2.29a1.56,1.56,0,0,0-1.55,1.55v13.42A1.55,1.55,0,0,0,216.4,270.76Zm7.67-1.28h-5.59v-8.75a2.8,2.8,0,1,1,5.59,0v8.75Zm-7.9-13.69a0.27,0.27,0,0,1,.27-0.27h9.67a0.27,0.27,0,0,1,.27.27v13.42a0.27,0.27,0,0,1-.27.27h-0.76v-8.75a4.08,4.08,0,1,0-8.16,0v8.75h-0.76a0.27,0.27,0,0,1-.27-0.27V255.79Z"/><path class="cls-3" d="M220,249.67a0.27,0.27,0,0,1,.27-0.27h2a0.27,0.27,0,0,1,.27.27v0.62h1.29v-0.62a1.56,1.56,0,0,0-1.55-1.55h-2a1.56,1.56,0,0,0-1.55,1.55v0.62H220v-0.62Z"/></g><path class="cls-1" d="M3,304.61c0-.75.72-1.53,1.55-2.43,1.3-1.42,2.93-3.19,2.93-6a7.75,7.75,0,0,0-7.74-7.74A7.75,7.75,0,0,0-8,296.17c0,2.82,1.62,4.59,2.93,6,0.83,0.9,1.55,1.68,1.55,2.43a0.67,0.67,0,0,0,.52.65l1.06,3.61a0.67,0.67,0,0,0-.19.47v2.4a0.68,0.68,0,0,0,.68.68H1a0.68,0.68,0,0,0,.68-0.68v-2.4a0.67,0.67,0,0,0-.19-0.47l1.06-3.61A0.67,0.67,0,0,0,3,304.61Zm3.11-8.44c0,2.29-1.36,3.78-2.57,5.08a6.93,6.93,0,0,0-1.82,2.67H1.54a10.62,10.62,0,0,1,.6-2,15,15,0,0,0,1.17-5.79,13.44,13.44,0,0,0-1.22-5.93A6.39,6.39,0,0,1,6.13,296.17Zm-4.18,0a13.63,13.63,0,0,1-1.08,5.31,10.74,10.74,0,0,0-.71,2.45H-0.67a10.74,10.74,0,0,0-.71-2.45,13.66,13.66,0,0,1-1.08-5.31c0-3.9,1.3-6.38,2.2-6.38S2,292.27,2,296.17Zm-6,5.08c-1.21-1.31-2.57-2.79-2.57-5.08a6.38,6.38,0,0,1,4-5.93,13.44,13.44,0,0,0-1.22,5.93A15,15,0,0,0-2.65,302a10.62,10.62,0,0,1,.6,2h-0.2A7,7,0,0,0-4.06,301.25Zm1.78,4h1.69v3.37H-1.3Zm2.55,5.77h-1v-1h1v1Zm0.53-2.4H0.09v-3.37H1.78Z"/><g class="cls-2"><path class="cls-3" d="M110.51,308.69a3.39,3.39,0,0,0,1,2.52,4.07,4.07,0,0,0,2.94,1.21,3.45,3.45,0,0,0,2.76-1.23,3,3,0,0,0,.52-2.63,32,32,0,0,1-.8-5,7.17,7.17,0,0,1,.93-3.47,13.25,13.25,0,0,0,1.54-4.84c0.17-1.54-.25-3.62-1.38-4.42a4,4,0,0,0-2.28-.59,6.35,6.35,0,0,0-2.13.37,6,6,0,0,0-3.27,4.49,33.49,33.49,0,0,0-.05,7A53.07,53.07,0,0,1,110.51,308.69Zm6.13-9.34a8.55,8.55,0,0,0-1.15,4.28,32.93,32.93,0,0,0,.83,5.25,1.62,1.62,0,0,1-.26,1.43,2.06,2.06,0,0,1-1.66.7,2.65,2.65,0,0,1-1.92-.78,2,2,0,0,1-.57-1.48,54.58,54.58,0,0,0-.27-6.83,31.75,31.75,0,0,1-.14-3.36,10.41,10.41,0,0,0,3.61-3.24,10,10,0,0,0,1.95,3.19A5.72,5.72,0,0,1,116.64,299.35Zm-4.95-4a4.65,4.65,0,0,1,2.36-3.37,4.88,4.88,0,0,1,1.64-.28,2.7,2.7,0,0,1,1.46.32,4,4,0,0,1,.8,3.13,12.14,12.14,0,0,1-.36,1.81,6.11,6.11,0,0,1-1.41-3.28,0.81,0.81,0,1,0-1.6-.27,8.35,8.35,0,0,1-3,3.51C111.59,296.3,111.63,295.75,111.7,295.32Z"/><path class="cls-3" d="M121,301a31.85,31.85,0,0,1-2.23,4.52,3,3,0,0,0-.28,2.67,3.45,3.45,0,0,0,2.27,2,4.31,4.31,0,0,0,1.27.19,3.57,3.57,0,0,0,3.56-2.61,53.26,53.26,0,0,1,2.2-6.24,33.41,33.41,0,0,0,2-6.67,6,6,0,0,0-1.8-5.25,5.37,5.37,0,0,0-4.28-1.09c-1.31.44-2.33,2.29-2.63,3.82a13.31,13.31,0,0,0,0,5.08A7.14,7.14,0,0,1,121,301Zm5.51,0a54.64,54.64,0,0,0-2.27,6.45A2.18,2.18,0,0,1,122,309a2.83,2.83,0,0,1-.85-0.13,2.06,2.06,0,0,1-1.38-1.15,1.62,1.62,0,0,1,.17-1.44,32.84,32.84,0,0,0,2.35-4.77,8.54,8.54,0,0,0,.17-4.43,5.76,5.76,0,0,1-.16-0.93,10,10,0,0,0,2.8-2.47,10.43,10.43,0,0,0,2.49,4.16A31.82,31.82,0,0,1,126.48,301Zm-4-8.37a4,4,0,0,1,1.69-2.75,1.33,1.33,0,0,1,.43-0.06,3.91,3.91,0,0,1,3.81,4.85c-0.07.44-.18,1-0.33,1.55a8.34,8.34,0,0,1-1.87-4.25,0.9,0.9,0,0,0-.69-0.94,0.92,0.92,0,0,0-.91.73,6.1,6.1,0,0,1-2.32,2.72A12.19,12.19,0,0,1,122.45,292.63Z"/></g><path class="cls-1" d="M150.22,303h0.14l7.3-1.45,0.25,5.64a1.79,1.79,0,0,1-.49,1.15l-0.66.59a3.09,3.09,0,0,0-1,2.06,1.24,1.24,0,0,0,1.3,1.26,1.85,1.85,0,0,0,.68-0.14l1.78-.69v0.26a0.74,0.74,0,1,0,1.48,0v-0.26l1.78,0.69a1.85,1.85,0,0,0,.68.14,1.24,1.24,0,0,0,1.3-1.26,3.09,3.09,0,0,0-1-2.06l-0.66-.59a1.79,1.79,0,0,1-.49-1.15l0.25-5.64,7.3,1.45h0.14a0.74,0.74,0,0,0,.74-0.74v-1.92a0.74,0.74,0,0,0-.42-0.67L163,296.08l0.16-3.61a3.87,3.87,0,0,0-.79-2.36L161.46,289a1.63,1.63,0,0,0-2.48,0l-0.92,1.11a3.87,3.87,0,0,0-.79,2.36l0.16,3.61-7.53,3.61a0.74,0.74,0,0,0-.42.67v1.92A0.74,0.74,0,0,0,150.22,303ZM163,297.68l6.54,3.14v0.56l-6.64-1.32Zm-4.55,11.78a3.22,3.22,0,0,0,1-2.33l-0.65-14.73a2.44,2.44,0,0,1,.45-1.35l0.92-1.11a0.11,0.11,0,0,1,.2,0l0.92,1.11a2.45,2.45,0,0,1,.45,1.35l-0.65,14.73a3.22,3.22,0,0,0,1,2.33l0.66,0.59a1.94,1.94,0,0,1,.45.65l-1.69-.66a3.83,3.83,0,0,0-2.49,0l-1.69.66a1.93,1.93,0,0,1,.45-0.65ZM151,300.82l6.54-3.14,0.1,2.38L151,301.38v-0.56Z"/><g class="cls-2"><path class="cls-3" d="M38.81,289.77A3.26,3.26,0,0,1,42.07,293a0.67,0.67,0,0,0,1.35,0,4.6,4.6,0,0,0-9.21,0v16.82a2.58,2.58,0,0,0,2.58,2.58h4a2.58,2.58,0,0,0,2.58-2.58v-9a4.61,4.61,0,0,0-4.6-4.6,3.31,3.31,0,0,1-3.16-2.48A3.22,3.22,0,0,1,38.81,289.77Zm3.26,20.08a1.23,1.23,0,0,1-1.23,1.23h-4a1.24,1.24,0,0,1-1.23-1.23v-2.17a4.6,4.6,0,0,0,6.52,0v2.17Zm-6.52-5.42a3.26,3.26,0,1,1,3.26,3.26A3.26,3.26,0,0,1,35.55,304.42Zm3.26-6.79A3.3,3.3,0,0,1,42,300.11a3.19,3.19,0,0,1,.1.78v0.29a4.6,4.6,0,0,0-6.52,0v-4.9A4.59,4.59,0,0,0,38.81,297.63Z"/><rect class="cls-3" x="37.11" y="303.75" width="3.4" height="1.35"/></g><g class="cls-2"><path class="cls-3" d="M188.53,229.32a0.71,0.71,0,0,0,.71.71h22.58a0.71,0.71,0,1,0,0-1.42H189.24A0.71,0.71,0,0,0,188.53,229.32Z"/><path class="cls-3" d="M209.41,218.6a0.71,0.71,0,0,0,0-1.42H191.66a0.71,0.71,0,1,0,0,1.42h0.22v7.71h-0.22a0.71,0.71,0,0,0,0,1.42h17.75a0.71,0.71,0,0,0,0-1.42h-0.22V218.6h0.22Zm-16.11,0h0.85v7.71H193.3V218.6Zm2.27,0h0.85v7.71h-0.85V218.6Zm2.27,0h0.85v7.71h-0.85V218.6Zm2.27,0H201v7.71H200.1V218.6Zm2.27,0h0.85v7.71h-0.85V218.6Zm2.27,0h0.85v7.71h-0.85V218.6Zm3.12,7.71h-0.85V218.6h0.85v7.71Z"/><path class="cls-3" d="M210.18,216.48a0.7,0.7,0,0,0,.25,0l0.07,0,0.15-.1,0.05,0a0.72,0.72,0,0,0,.12-0.17l0,0h0a0.68,0.68,0,0,0,0-.12,0.72,0.72,0,0,0,0-.15h0a0.75,0.75,0,0,0-.05-0.27,0.71,0.71,0,0,0-.06-0.08,0.66,0.66,0,0,0-.11-0.15,0.71,0.71,0,0,0-.21-0.14h0l-9.65-3.93-0.08,0a0.72,0.72,0,0,0-.18,0,0.7,0.7,0,0,0-.2,0h-0.08l-9.64,3.92h0a0.73,0.73,0,0,0-.22.14,0.72,0.72,0,0,0-.11.16,0.82,0.82,0,0,0-.05.08,0.72,0.72,0,0,0-.05.27h0a0.69,0.69,0,0,0,0,.15,0.81,0.81,0,0,0,0,.12h0l0,0a0.65,0.65,0,0,0,.12.18l0.05,0a0.67,0.67,0,0,0,.15.1l0.07,0a0.69,0.69,0,0,0,.25,0h19.3Zm-15.68-1.42,6-2.45,6,2.45H194.5Z"/></g><path class="cls-1" d="M91.64,385.37v-5.91a0.71,0.71,0,1,0-1.41,0v0.28H89.91v-0.28a0.71,0.71,0,1,0-1.42,0v0.28H88.17v-0.28a0.71,0.71,0,1,0-1.42,0v0.28H86.42v-0.28a0.71,0.71,0,1,0-1.42,0v0.28H84.68v-0.28a0.71,0.71,0,1,0-1.42,0v0.28H83v-2.86a0.7,0.7,0,0,0-.13-0.38v-0.6a0.71,0.71,0,0,0-1.42,0v0.28H81.18v-0.28a0.71,0.71,0,0,0-1.42,0v0.28H79.52v-0.28a0.71,0.71,0,0,0-1.42,0v0.28H77.86v-0.28a0.71,0.71,0,0,0-1.42,0v0.6a0.68,0.68,0,0,0-.13.38v2.86H76v-0.28a0.71,0.71,0,1,0-1.42,0v0.28H74.28v-0.28a0.71,0.71,0,1,0-1.42,0v0.28H72.54v-0.28a0.71,0.71,0,1,0-1.42,0v0.28H70.8v-0.28a0.71,0.71,0,1,0-1.42,0v0.28H69.06v-0.28a0.71,0.71,0,1,0-1.41,0v5.91a0.71,0.71,0,0,0,.71.71H90.94A0.71,0.71,0,0,0,91.64,385.37Zm-22.58-4.22h7.25v3.51H69.06v-3.51Zm12.5,3.51H77.73v-7.08h3.83v7.08ZM83,381.15h7.25v3.51H83v-3.51Z"/><g class="cls-2"><rect class="cls-3" x="97.53" y="339.11" width="4.52" height="1.42"/><path class="cls-3" d="M88.5,347.14h22.58a0.71,0.71,0,0,0,0-1.42h-3.74v-5.2h1.06a0.71,0.71,0,1,0,0-1.42h-3.52v1.42h1v5.2h-1.75v-9l0.71,0,0.68,0a0.71,0.71,0,0,0-.08-1.42l-0.6,0-0.71,0V335l0.71,0c1.22-.06,2.42-0.14,3.58-0.24a0.71,0.71,0,0,0-.12-1.41c-1.21.11-2.45,0.19-3.72,0.25q-1.16.06-2.35,0.08c-0.82,0-1.64,0-2.47,0s-1.65,0-2.47,0-1.58,0-2.35-.08c-1.27-.06-2.52-0.14-3.72-0.25a0.71,0.71,0,0,0-.12,1.41c1.16,0.1,2.36.18,3.58,0.24l0.71,0v0.31l-0.71,0-0.6,0a0.71,0.71,0,0,0-.08,1.42l0.68,0,0.71,0v9H93.65v-5.2h1v-1.42H91.18a0.71,0.71,0,1,0,0,1.42h1.06v5.2H88.5A0.71,0.71,0,0,0,88.5,347.14Zm8.32-12.09,0.71,0,2.26,0,2.26,0,0.71,0v0.33H102c-1.51,0-3,0-4.52,0H96.82v-0.33Zm0,1.74h0.71c0.76,0,1.51,0,2.26,0s1.5,0,2.26,0h0.71v8.93H96.82V336.8Z"/></g><g class="cls-2"><path class="cls-3" d="M152.11,347a0.71,0.71,0,0,0-.71-0.71h-0.32l-4.34-8.3,0,0,0,0a0.86,0.86,0,0,0-.08-0.09l-0.09-.09,0,0h0l-0.06,0-0.14-.06H146l-0.09,0h0l-0.09,0,0,0h0a0.64,0.64,0,0,0-.08.08l-0.1.09,0,0h0l-2.29,3.31-5.57-8.13a0.75,0.75,0,0,0-.14-0.15l0,0a0.69,0.69,0,0,0-.19-0.09l0,0h0l-0.2,0h-0.1a0.75,0.75,0,0,0-.2.07l0,0a0.71,0.71,0,0,0-.18.16l0,0,0,0.07-7,13.13h-0.67a0.71,0.71,0,1,0,0,1.42H151.4A0.71,0.71,0,0,0,152.11,347Zm-7.42-5.38-0.28,1.32-0.32-.46Zm-9.79-2.51-1.85,7.19h-2Zm-0.39,7.19,2.87-11.11L145,346.28H134.52Zm12.2,0-1.19-1.74,0.88-4.16,3.09,5.9h-2.78Z"/></g><path class="cls-1" d="M148.46,385.43a0.74,0.74,0,0,0,0,1.48H172a0.74,0.74,0,1,0,0-1.48h-0.22a9.5,9.5,0,0,1,.26-5.05,0.74,0.74,0,0,0-.92-0.93,11.25,11.25,0,0,0-2.41,1.08,14.08,14.08,0,0,1,.54-2.37,0.74,0.74,0,0,0-.92-0.93,15.35,15.35,0,0,0-4.45,2.21,20.6,20.6,0,0,0-8.44-5.05,0.74,0.74,0,0,0-.92.93,19.28,19.28,0,0,1,.75,3.27,15.31,15.31,0,0,0-3.12-1.36,0.74,0.74,0,0,0-.92.93,14,14,0,0,1,.54,2.37,11.26,11.26,0,0,0-2.41-1.08,0.74,0.74,0,0,0-.92.93,9.42,9.42,0,0,1,.25,5.05h-0.21Zm21.8-4.08a11.26,11.26,0,0,0-.19,2.06,11,11,0,0,0,.14,1.72H166A9.84,9.84,0,0,1,170.26,381.35Zm-2.81-2.25a15.33,15.33,0,0,0-.35,2.56,11.34,11.34,0,0,0-2.73,3.47h-3c-0.1-.21-0.21-0.42-0.32-0.62A13.94,13.94,0,0,1,167.45,379.1Zm-11.14-2.85a19.13,19.13,0,0,1,6.38,4.12,15.5,15.5,0,0,0-2.46,2.78,15.47,15.47,0,0,0-3.37-3.49A20.71,20.71,0,0,0,156.31,376.25ZM153,379.1a14,14,0,0,1,6.75,6h-3.68a11.33,11.33,0,0,0-2.73-3.47A15.34,15.34,0,0,0,153,379.1Zm1.41,6h-4.16a11,11,0,0,0,.14-1.72,11.17,11.17,0,0,0-.19-2.06A9.84,9.84,0,0,1,154.41,385.13Z"/><path class="cls-1" d="M71.56,269.21a0.71,0.71,0,0,0-.71-0.71h-3v-9h0a0.71,0.71,0,1,0,0-1.42h0v-3.23h0a0.71,0.71,0,0,0,0-1.42H67.7l-0.36-1.7H67.4a0.71,0.71,0,1,0,0-1.42H51.72a0.71,0.71,0,0,0,0,1.42h0.06l-0.36,1.7H51.23a0.71,0.71,0,0,0,0,1.42h0v3.23h0a0.71,0.71,0,1,0,0,1.42h0v9h-3a0.71,0.71,0,1,0,0,1.42H70.85A0.71,0.71,0,0,0,71.56,269.21Zm-5.67-17.49,0.36,1.7H52.86l0.36-1.7H65.89Zm-13.2,3.12H66.42v3.23H62.71a3.23,3.23,0,0,0-6.3,0H52.69v-3.23Zm0,4.65h3.63v9H52.69v-9Zm5,0h0a0.71,0.71,0,0,0,.71-0.71,0.7,0.7,0,0,0-.62-0.69,1.81,1.81,0,0,1,3.36,0,0.7,0.7,0,0,0-.62.69,0.71,0.71,0,0,0,.71.71h0v9H57.74v-9Zm5,0h3.63v9H62.79v-9Z"/><path class="cls-1" d="M31.8,265.68H31.09V263.1a0.71,0.71,0,0,0-.71-0.71H28.75V260a0.71,0.71,0,0,0-.71-0.71H26.42v-2.38a0.71,0.71,0,0,0-.71-0.71H24.09v-2.38a0.71,0.71,0,0,0-.71-0.71H17.51a0.71,0.71,0,0,0-.71.71v2.38H15.18a0.71,0.71,0,0,0-.71.71v2.38H12.84a0.71,0.71,0,0,0-.71.71v2.38H10.51a0.71,0.71,0,0,0-.71.71v2.58H9.21l-0.11,0a0.7,0.7,0,0,0-.6.69,0.71,0.71,0,0,0,.71.71H31.79A0.71,0.71,0,0,0,31.8,265.68Zm-9.12-7.53v1.26H18.22v-1.72h4.46v0.46Zm-4.46,2.67h4.46v1.72H18.22v-1.72Zm0-6.27h4.46v1.72H18.22v-1.72Zm-7,11.12v-1.87h1.62a0.71,0.71,0,0,0,.71-0.71v-2.38h1.62a0.71,0.71,0,0,0,.71-0.71v-2.38H16.8v8H11.22Zm7-1.72h4.46v1.72H18.22V264ZM29,265.68H24.09v-8H25V260a0.71,0.71,0,0,0,.71.71h1.62v2.38a0.71,0.71,0,0,0,.71.71h1.62v1.87H29Z"/><g class="cls-2"><path class="cls-3" d="M10.58,219.93a1.47,1.47,0,0,0-1.36-2.25H0a1.55,1.55,0,0,0-1.37.7,1.54,1.54,0,0,0,0,1.53c0.08,0.16,1.88,3.61,5.15,4.13v6.09l-3.1.81a0.83,0.83,0,0,0,.21,1.63H8.33A0.83,0.83,0,0,0,8.54,231l-3.1-.81v-6.09C8.71,223.53,10.5,220.08,10.58,219.93Zm-10.37-.59H9c-0.39.68-2,3.13-4.41,3.13S0.66,220.11.21,219.34Z"/></g><g class="cls-2"><path class="cls-3" d="M26.81,229.79a0.78,0.78,0,0,0,.78.71h0s11.35-.12,18.59-0.24a0.79,0.79,0,0,0,.75-0.62,6.43,6.43,0,0,1,3.36-3.44,0.78,0.78,0,0,0-.43-1.5l-22.43,4.24A0.78,0.78,0,0,0,26.81,229.79Zm20-2.92a7.81,7.81,0,0,0-1.21,1.83l-9.12.12Z"/><path class="cls-3" d="M30.33,226.86a0.79,0.79,0,0,0,.58.26,0.77,0.77,0,0,0,.37-0.09,9,9,0,0,1,3-1.22,0.36,0.36,0,0,1,.43.35,0.78,0.78,0,0,0,1.45.17,8.5,8.5,0,0,0,.89-3.06,0.79,0.79,0,0,0,.35-0.05,4.28,4.28,0,0,1,1.69-.31,5.6,5.6,0,0,1,4.55,2.15,0.78,0.78,0,0,0,.65.35l0.17,0a0.79,0.79,0,0,0,.61-0.64,13.62,13.62,0,0,0-3.05-10.52,9.68,9.68,0,0,0-7.39-3.57H34.55A0.79,0.79,0,0,0,34,212c3.63,3.39,4.69,6.62,3.07,9.21a8.7,8.7,0,0,0-.57-2.36A6.6,6.6,0,0,0,32.47,215a0.79,0.79,0,0,0-.94,1.12c1.94,3.64.38,7.35-1.28,9.83A0.78,0.78,0,0,0,30.33,226.86Zm6.33-14.37a8.5,8.5,0,0,1,4.21,2.77,12.19,12.19,0,0,1,2.82,7.56,7.81,7.81,0,0,0-4.55-1.47H38.81C39.71,219.42,40,216.36,36.66,212.49Zm-2.91,5a5.57,5.57,0,0,1,1.32,2,7.71,7.71,0,0,1,.21,5,3.17,3.17,0,0,0-2.46.1A10.56,10.56,0,0,0,33.75,217.49Z"/></g><g class="cls-2"><path class="cls-3" d="M190.36,308.1a0.71,0.71,0,1,0,1.41,0v-9.16l1.44-1.44a0.7,0.7,0,0,0,.39-0.62v-2.27a0.71,0.71,0,0,0-1.41,0v1.92l-0.43.43a0.75,0.75,0,0,0,0-.08v-2.27a0.71,0.71,0,1,0-1.41,0v2.27a0.68,0.68,0,0,0,0,.15l-0.44-.44v-2a0.71,0.71,0,1,0-1.41,0v2.27a0.72,0.72,0,0,0,.21.5h0l1.62,1.62v9.11Z"/><path class="cls-3" d="M211.82,308.81a0.71,0.71,0,0,0,.71-0.71V292.75h0a0.62,0.62,0,0,0,0-.08,0.78,0.78,0,0,0,0-.18,0.76,0.76,0,0,0-.08-0.12,0.72,0.72,0,0,0-.07-0.1,0.71,0.71,0,0,0-.17-0.12l-0.05,0h0a0.66,0.66,0,0,0-.16,0l-0.12,0h0l-0.13,0-0.13,0a0.7,0.7,0,0,0-.14.09l-0.08.06a0.73,0.73,0,0,0-.12.17l0,0.05h0c-0.44,1-1.81,4.35-1.29,5.77a2.62,2.62,0,0,0,1.24,1.12v8.75A0.71,0.71,0,0,0,211.82,308.81Z"/><path class="cls-3" d="M193.41,300.85a7.7,7.7,0,1,0,7.7-7.7A7.71,7.71,0,0,0,193.41,300.85Zm14,0a6.29,6.29,0,1,1-6.29-6.29A6.29,6.29,0,0,1,207.39,300.85Z"/><path class="cls-3" d="M197.19,300.85a3.91,3.91,0,0,1,.56-2,0.71,0.71,0,1,0-1.21-.73,5.33,5.33,0,0,0,4.57,8.08,0.71,0.71,0,1,0,0-1.41A3.93,3.93,0,0,1,197.19,300.85Z"/></g><g class="cls-2"><path class="cls-3" d="M187.83,338.11a0.72,0.72,0,1,0,0-1.43H187a6.91,6.91,0,0,0-.91-2.78l0.67-.49a0.72,0.72,0,0,0-.84-1.16l-0.67.49a7,7,0,0,0-2.36-1.72l0.26-.79a0.72,0.72,0,0,0-1.36-.44l-0.26.78a6.85,6.85,0,0,0-2.93,0l-0.25-.78a0.72,0.72,0,1,0-1.36.44l0.25,0.78a7,7,0,0,0-2.36,1.72l-0.67-.49a0.72,0.72,0,0,0-.84,1.16l0.67,0.49a6.91,6.91,0,0,0-.91,2.78H172.3a0.72,0.72,0,0,0,0,1.43h0.82a6.9,6.9,0,0,0,.91,2.78l-0.67.48a0.72,0.72,0,0,0-.16,1,0.7,0.7,0,0,0,.46.27,3.22,3.22,0,0,1,.58-0.14l0.63-.46c0.15,0.17.31,0.33,0.48,0.48a3,3,0,0,1,1,.35l1.08,0.64a0.62,0.62,0,0,0,.3,0l1.06-.63,0.13-.06,0.19-.09,0.81-2.49,0.17,0,0.17,0,0.74,2.29a3.17,3.17,0,0,1,.65.18,3,3,0,0,1,.34.17l1.08,0.64a0.64,0.64,0,0,0,.3,0l0.83-.49a7,7,0,0,0,1.08-1l0.6,0.43a3.47,3.47,0,0,1,.88.07,0.7,0.7,0,0,0,.2-0.17,0.72,0.72,0,0,0-.16-1l-0.67-.49a6.91,6.91,0,0,0,.91-2.78h0.82Zm-2.27-1.43h-2.73a3.22,3.22,0,0,0-.1-0.33l2.21-1.61A5.48,5.48,0,0,1,185.56,336.67Zm-1.47-3.09-2.21,1.61a2.58,2.58,0,0,0-.27-0.21l0.84-2.6A5.57,5.57,0,0,1,184.09,333.58Zm-4-1.74a5.47,5.47,0,0,1,1,.1l-0.85,2.6-0.17,0-0.17,0-0.85-2.6A5.46,5.46,0,0,1,180.06,331.84Zm-2.38.54,0.84,2.6a2.82,2.82,0,0,0-.28.21L176,333.58A5.57,5.57,0,0,1,177.68,332.39Zm-2.49,2.35,2.21,1.61a2.69,2.69,0,0,0-.1.33h-2.73A5.51,5.51,0,0,1,175.19,334.74Zm-0.62,3.37h2.73a2.72,2.72,0,0,0,.1.33L175.19,340A5.47,5.47,0,0,1,174.57,338.11Zm3.12,4.29a5.57,5.57,0,0,1-1.64-1.2l2.21-1.61a2.54,2.54,0,0,0,.28.21Zm2.38-3.57a1.43,1.43,0,1,1,1.43-1.43A1.43,1.43,0,0,1,180.06,338.82Zm2.38,3.57-0.84-2.6a2.57,2.57,0,0,0,.27-0.21l2.21,1.61A5.59,5.59,0,0,1,182.44,342.39Zm2.49-2.35-2.21-1.61a3.11,3.11,0,0,0,.1-0.33h2.73A5.5,5.5,0,0,1,184.93,340Z"/><path class="cls-3" d="M192.27,343.22a0.72,0.72,0,0,0-1-.25l-1.95,1.16a1.18,1.18,0,0,1-1,0l-1.08-.64a2.59,2.59,0,0,0-2.47,0l-1.08.64a1.18,1.18,0,0,1-1,0l-1.08-.64a2.59,2.59,0,0,0-2.48,0l-1.08.64a1.18,1.18,0,0,1-1,0l-1.08-.64a2.59,2.59,0,0,0-2.48,0l-1.08.64a1.18,1.18,0,0,1-1,0L169.45,343a0.72,0.72,0,0,0-.73,1.23l1.95,1.16a2.6,2.6,0,0,0,2.48,0l1.08-.64a1.18,1.18,0,0,1,1,0l1.08,0.64a2.6,2.6,0,0,0,2.48,0l1.08-.64a1.18,1.18,0,0,1,1,0l1.08,0.64a2.59,2.59,0,0,0,2.47,0l1.08-.64a1.18,1.18,0,0,1,1,0l1.08,0.64a2.6,2.6,0,0,0,2.47,0l1.95-1.16A0.72,0.72,0,0,0,192.27,343.22Z"/><path class="cls-3" d="M192.27,346a0.72,0.72,0,0,0-1-.25l-1.95,1.16a1.18,1.18,0,0,1-1,0l-1.08-.64a2.6,2.6,0,0,0-2.47,0l-1.08.64a1.18,1.18,0,0,1-1,0l-1.08-.64a2.6,2.6,0,0,0-2.48,0l-1.08.64a1.18,1.18,0,0,1-1,0l-1.08-.64a2.6,2.6,0,0,0-2.48,0l-1.08.64a1.18,1.18,0,0,1-1,0l-1.95-1.16a0.72,0.72,0,0,0-.73,1.23l1.95,1.16a2.59,2.59,0,0,0,2.48,0l1.08-.64a1.18,1.18,0,0,1,1,0l1.08,0.64a2.59,2.59,0,0,0,2.48,0l1.08-.64a1.18,1.18,0,0,1,1,0l1.08,0.64a2.59,2.59,0,0,0,2.47,0l1.08-.64a1.18,1.18,0,0,1,1,0l1.08,0.64a2.59,2.59,0,0,0,2.47,0L192,347A0.72,0.72,0,0,0,192.27,346Z"/><path class="cls-3" d="M192.27,348.71a0.72,0.72,0,0,0-1-.25l-1.95,1.16a1.18,1.18,0,0,1-1,0l-1.08-.64a2.59,2.59,0,0,0-2.47,0l-1.08.64a1.18,1.18,0,0,1-1,0l-1.08-.64a2.59,2.59,0,0,0-2.48,0l-1.08.64a1.18,1.18,0,0,1-1,0L176,349a2.59,2.59,0,0,0-2.48,0l-1.08.64a1.18,1.18,0,0,1-1,0l-1.95-1.16a0.72,0.72,0,0,0-.73,1.23l1.95,1.16a2.59,2.59,0,0,0,2.48,0l1.08-.64a1.17,1.17,0,0,1,1,0l1.08,0.64a2.59,2.59,0,0,0,2.48,0l1.08-.64a1.17,1.17,0,0,1,1,0l1.08,0.64a2.59,2.59,0,0,0,2.47,0l1.08-.64a1.17,1.17,0,0,1,1,0l1.08,0.64a2.59,2.59,0,0,0,2.47,0L192,349.7A0.72,0.72,0,0,0,192.27,348.71Z"/></g><g class="cls-2"><path class="cls-3" d="M90.71,309.39a0.69,0.69,0,0,0-.89-0.4l-1.81.69a2.3,2.3,0,0,1-1.33,0l-0.89-.34a3.64,3.64,0,0,0-2.32,0l-0.89.34a2.32,2.32,0,0,1-1.33,0l-0.89-.34a3.64,3.64,0,0,0-2.32,0l-0.89.34a2.31,2.31,0,0,1-1.33,0l-0.89-.34a3.64,3.64,0,0,0-2.32,0l-0.89.34a2.3,2.3,0,0,1-1.33,0l-1.8-.69a0.69,0.69,0,0,0-.49,1.29l1.8,0.69a3.64,3.64,0,0,0,2.32,0l0.89-.34a2.31,2.31,0,0,1,1.33,0L75.33,311a3.63,3.63,0,0,0,2.32,0l0.89-.34a2.3,2.3,0,0,1,1.33,0L80.76,311a3.62,3.62,0,0,0,2.32,0l0.89-.34a2.32,2.32,0,0,1,1.33,0L86.19,311a3.64,3.64,0,0,0,2.32,0l1.8-.69A0.69,0.69,0,0,0,90.71,309.39Z"/><path class="cls-3" d="M91,299.23H86.67v-3.87a0.69,0.69,0,0,0-.69-0.69H79.72l-1.24-4.49a0.69,0.69,0,0,0-.66-0.51H75.64a0.69,0.69,0,0,0-.66.87l1.14,4.13H73.46a0.69,0.69,0,0,0-.69.69v3.87H70.53a0.69,0.69,0,0,0-.69.69v7l-1.26-.48a0.69,0.69,0,1,0-.49,1.29l1.8,0.69a3.64,3.64,0,0,0,2.32,0l0.89-.34a2.29,2.29,0,0,1,1.33,0l0.89,0.34a3.64,3.64,0,0,0,2.32,0l0.89-.34a2.3,2.3,0,0,1,1.33,0l0.89,0.34a3.62,3.62,0,0,0,2.32,0l0.89-.34a2.3,2.3,0,0,1,1.33,0l0.89,0.34a3.64,3.64,0,0,0,2.32,0l1.8-.69a0.69,0.69,0,1,0-.49-1.29l-1.81.69-0.1,0,3.65-6.9A0.69,0.69,0,0,0,91,299.23ZM77.3,291.05l1,3.62H77.54l-1-3.62H77.3Zm-3.14,5H85.29v3.18H74.15v-3.18Zm12.27,11-0.63-.24a3.64,3.64,0,0,0-2.32,0l-0.89.34a2.32,2.32,0,0,1-1.33,0l-0.89-.34a3.64,3.64,0,0,0-2.32,0l-0.89.34a2.33,2.33,0,0,1-1.33,0l-0.89-.34a3.64,3.64,0,0,0-2.32,0l-0.89.34a1.76,1.76,0,0,1-.49.09v-6.59H89.81Z"/><rect class="cls-3" x="72.25" y="301.62" width="1.38" height="1.38"/><polygon class="cls-3" points="75.52 303 76.89 303 76.89 301.62 75.5 301.62 75.52 303"/><polygon class="cls-3" points="78.77 303 80.15 303 80.15 301.62 78.76 301.62 78.77 303"/><polygon class="cls-3" points="82.03 303 83.41 303 83.41 301.62 82.02 301.62 82.03 303"/><rect class="cls-3" x="85.29" y="301.62" width="1.38" height="1.38"/><rect class="cls-3" x="74.92" y="296.95" width="1.38" height="1.38"/><polygon class="cls-3" points="80.61 298.33 81.99 298.33 81.99 296.95 80.6 296.95 80.61 298.33"/><polygon class="cls-3" points="77.77 298.33 79.15 298.33 79.15 296.95 77.76 296.95 77.77 298.33"/><rect class="cls-3" x="83.45" y="296.95" width="1.38" height="1.38"/></g><g class="cls-2"><path class="cls-3" d="M26.81,380.29a4.12,4.12,0,0,0,4.21,4c1.9,0,4.26-.72,4.92-2.05a3.2,3.2,0,0,1,.87-1.13,3.22,3.22,0,0,1,.87,1.13c0.65,1.33,3,2.05,4.92,2.05a4.12,4.12,0,0,0,4.21-4c0-2.21-2.36-4-5.26-4H32.07C29.17,376.28,26.81,378.08,26.81,380.29Zm5.26-2.43h9.46c2,0,3.68,1.12,3.68,2.43a2.54,2.54,0,0,1-2.63,2.43c-1.79,0-3.27-.69-3.5-1.17-0.37-.76-1.28-2.05-2.29-2.05s-1.91,1.29-2.29,2.05c-0.23.48-1.71,1.17-3.5,1.17a2.54,2.54,0,0,1-2.63-2.43C28.39,379,30.07,377.86,32.07,377.86Z"/><path class="cls-3" d="M50,368.57a0.79,0.79,0,0,0-.79.79v19.38c0,1.26-1.92,2.36-4.11,2.36-2.7,0-4.11-.9-4.11-1.21v-1.2h1.05a0.79,0.79,0,0,0,0-1.58H38.38a0.79,0.79,0,0,0,0,1.58h1.05v1.2c0,1.83,2.86,2.78,5.69,2.78,3.19,0,5.69-1.73,5.69-3.94V369.36A0.79,0.79,0,0,0,50,368.57Z"/></g><g class="cls-2"><path class="cls-3" d="M93.86,264.54a3.64,3.64,0,1,0,3.64,3.64A3.64,3.64,0,0,0,93.86,264.54Zm0,5.83A2.19,2.19,0,1,1,96,268.18,2.19,2.19,0,0,1,93.86,270.37Z"/><path class="cls-3" d="M106.93,264.54a3.64,3.64,0,1,0,3.64,3.64A3.64,3.64,0,0,0,106.93,264.54Zm0,5.83a2.19,2.19,0,1,1,2.19-2.19A2.19,2.19,0,0,1,106.93,270.37Z"/><path class="cls-3" d="M91.09,265.28l0.37-.32a4,4,0,0,1,6.4,3.21,0.73,0.73,0,0,0,.73.73h3.6a0.73,0.73,0,0,0,.73-0.73,4,4,0,1,1,8,0,0.73,0.73,0,1,0,1.45,0,5.44,5.44,0,0,0-.2-1.46v-1.23c0-4.46,0-7.69-1.89-9.62a5,5,0,0,0-1.32-.93v-1.4h1.78a0.88,0.88,0,0,0,.73-0.39c0.4-.59.11-1.65-0.2-2.44-0.59-1.5-3.44-2.3-5.84-2.3a17.76,17.76,0,0,0-7.83,1.95c-2.86,1.74-2.72,2.2-2.61,2.61a0.81,0.81,0,0,0,.81.58h4.82v1.27c-3,1.06-4.81,3.23-6.59,5.36a27.46,27.46,0,0,1-3.5,3.67l-0.4.34,0,0v0a5.44,5.44,0,0,0-1.69,3.94,0.73,0.73,0,1,0,1.45,0A4,4,0,0,1,91.09,265.28Zm11-11.74h5.44v0.88a12.07,12.07,0,0,0-2.75-.28,13.28,13.28,0,0,0-2.69.27v-0.87Zm-4.5-1.45,0.79-.5a16.35,16.35,0,0,1,7.08-1.74c2.37,0,4.27.83,4.49,1.38a5.14,5.14,0,0,1,.26.85H97.59Zm-2.43,9c2.47-3,4.61-5.51,9.62-5.51,2.18,0,3.61.41,4.49,1.3,1.35,1.35,1.47,3.9,1.47,7.38a5.46,5.46,0,0,0-9.23,3.18H99.27a5.48,5.48,0,0,0-5.42-4.74H93.77C94.25,262.18,94.71,261.64,95.16,261.11Z"/><path class="cls-3" d="M96.5,262.43a6.21,6.21,0,0,1,1.64,1,0.73,0.73,0,0,0,.46.17h4.21a0.73,0.73,0,0,0,.46-0.17,6.32,6.32,0,0,1,6-1.09,0.73,0.73,0,0,0,1-.72c-0.12-2.21-.48-3.46-1.21-4.19s-2-1.08-4-1.08l-0.57,0-0.11,0a0.73,0.73,0,0,0-.17,0c-5.62.34-7.65,4-8.14,5.11A0.73,0.73,0,0,0,96.5,262.43Zm11.54-4a4.26,4.26,0,0,1,.71,2.24,7.73,7.73,0,0,0-3.61.17v-3.07C107.1,257.79,107.8,258.2,108,258.44Zm-4.35-.57v3.56a7.41,7.41,0,0,0-1.13.71h-3.7a7.9,7.9,0,0,0-1.1-.72A7.43,7.43,0,0,1,103.69,257.87Z"/></g><g class="cls-2"><path class="cls-3" d="M58.37,349.75a9.11,9.11,0,0,0,6.81-3.23l0.08,0a2.86,2.86,0,0,1,1.67-.66,7.82,7.82,0,0,0,2.25-.67c2.05-1,3-2.81,2.48-4.59a2.54,2.54,0,0,0-1.94-1.85,3.18,3.18,0,0,0-1.55.08c0-.18,0-0.36,0-0.55a0.69,0.69,0,0,0-.69-0.69H49.23a0.69,0.69,0,0,0-.69.69C48.54,344.59,52.95,349.75,58.37,349.75Zm11.07-9.68a1.16,1.16,0,0,1,.89.89c0.41,1.33-.65,2.39-1.77,2.94a6.5,6.5,0,0,1-1.88.55H66.63A12.59,12.59,0,0,0,68,340.4,1.88,1.88,0,0,1,69.44,340.06Zm-2.65-1.13c-0.3,5.25-4,9.42-8.42,9.42s-8.12-4.17-8.42-9.42H66.79Z"/><path class="cls-3" d="M58.37,352.23a86.15,86.15,0,0,0,9.66-.55,0.69,0.69,0,1,0-.16-1.38,84.07,84.07,0,0,1-19,0,0.69,0.69,0,0,0-.16,1.38A86.22,86.22,0,0,0,58.37,352.23Z"/><path class="cls-3" d="M59.29,332a2.56,2.56,0,0,0,.15-2.4l-0.51-1a0.69,0.69,0,0,0-1.24.63l0.51,1a1.19,1.19,0,0,1-.06,1l-0.69,1a2.6,2.6,0,0,0-.17,2.39l0.81,1.68a0.7,0.7,0,0,0,.63.39,0.69,0.69,0,0,0,.62-1l-0.81-1.68a1.23,1.23,0,0,1,.07-1Z"/><path class="cls-3" d="M60.73,333a2.69,2.69,0,0,0-.13,2.39l0.48,1a0.69,0.69,0,1,0,1.25-.6l-0.48-1a1.32,1.32,0,0,1,.06-1.05L62,333.6a2.77,2.77,0,0,0,.28-2.23l-0.3-.78a0.7,0.7,0,0,0-1.3.5l0.3,0.79a1.43,1.43,0,0,1-.16,1Z"/><path class="cls-3" d="M54.48,333a2.69,2.69,0,0,0-.13,2.39l0.48,1a0.69,0.69,0,0,0,.63.39,0.68,0.68,0,0,0,.3-0.07,0.69,0.69,0,0,0,.33-0.93l-0.48-1a1.31,1.31,0,0,1,.06-1.05l0.06-.09a2.77,2.77,0,0,0,.28-2.23l-0.3-.78a0.7,0.7,0,0,0-1.3.5l0.3,0.79a1.45,1.45,0,0,1-.16,1Z"/></g><g class="cls-2"><path class="cls-3" d="M192.8,373.42v10.18a8.29,8.29,0,0,0,.35,2.18l0.79,2.43a2,2,0,0,0,.29.55l-1.12,2.9a0.71,0.71,0,0,0,.41.92,0.69,0.69,0,0,0,.26,0,0.71,0.71,0,0,0,.66-0.45l1-2.59a1.89,1.89,0,0,0,.5.07h9.19a1.89,1.89,0,0,0,.5-0.07l1,2.59a0.71,0.71,0,0,0,.66.45,0.7,0.7,0,0,0,.26,0,0.71,0.71,0,0,0,.41-0.92l-1.12-2.9a1.93,1.93,0,0,0,.29-0.55l0.79-2.43a8.25,8.25,0,0,0,.35-2.18v-2.69h0v-7.49a1.71,1.71,0,0,0-1.71-1.71h-3.92a2.25,2.25,0,1,0-4.17,0h-3.92A1.72,1.72,0,0,0,192.8,373.42Zm4.84,8.2,2.4,2.29a0.78,0.78,0,0,0,.14.09l0.08,0.05a0.69,0.69,0,0,0,.27.05,0.7,0.7,0,0,0,.27-0.05l0.08-.05a0.72,0.72,0,0,0,.14-0.09l2.4-2.29h3.42v2a7.08,7.08,0,0,1-.21,1.5H194.44a7,7,0,0,1-.21-1.5v-2h3.42Zm-2.35,6.15-0.41-1.25h1.61v1.71h-0.56A0.78,0.78,0,0,1,195.29,387.77Zm2.62-1.25h0.8v1.71h-0.8v-1.71Zm2.21,0h0.8v1.71h-0.8v-1.71Zm2.22,0h0.8v1.71h-0.8v-1.71Zm2.22,1.71v-1.71h1.61l-0.41,1.25a0.78,0.78,0,0,1-.64.47h-0.56Zm2-15.11a0.3,0.3,0,0,1,.3.29v6.79h-3.71l-0.1,0a0.69,0.69,0,0,0-.17,0,0.8,0.8,0,0,0-.15.09l-0.08.05-1.4,1.34v-8.61h5.3Zm-6-3.08a0.83,0.83,0,1,1-.83.83A0.83,0.83,0,0,1,200.53,370Zm-0.71,3.08v8.61l-1.4-1.34-0.08,0a0.7,0.7,0,0,0-.15-0.09l-0.16,0-0.1,0h-3.71v-6.79a0.3,0.3,0,0,1,.3-0.29h5.3Z"/><rect class="cls-3" x="195.53" y="382.69" width="1.42" height="1.42"/><rect class="cls-3" x="204.11" y="382.69" width="1.42" height="1.42"/></g><g class="cls-2"><path class="cls-3" d="M10.93,376.54l-1.88-1.88a1.38,1.38,0,0,0-.28-0.22,3.11,3.11,0,0,0-1.7-.6H-10.73a1.53,1.53,0,0,0-1.53,1.52v10.51a1.53,1.53,0,0,0,1.53,1.52h21a1.53,1.53,0,0,0,1.52-1.52v-7.36a3.12,3.12,0,0,0-.6-1.7A1.63,1.63,0,0,0,10.93,376.54ZM9.6,377H8.87a0.27,0.27,0,0,1-.26-0.26V376Zm0.89,8.89a0.27,0.27,0,0,1-.26.26H6.68a0.69,0.69,0,0,0-1.18-.45,0.72,0.72,0,0,0-.19.45h-16a0.27,0.27,0,0,1-.26-0.26V375.37a0.27,0.27,0,0,1,.26-0.26h16a0.68,0.68,0,0,0,.19.45,0.69,0.69,0,0,0,1.18-.45h0.4a1.2,1.2,0,0,1,.28,0,1.6,1.6,0,0,0,0,.22v1.36a1.53,1.53,0,0,0,1.52,1.52h1.36l0.22,0a1.18,1.18,0,0,1,0,.28v7.36Z"/><circle class="cls-3" cx="5.99" cy="377.85" r="0.69"/><path class="cls-3" d="M6,382.71a0.69,0.69,0,1,0,.69.7A0.69,0.69,0,0,0,6,382.71Z"/><path class="cls-3" d="M6,379.94a0.69,0.69,0,1,0,.69.69A0.69,0.69,0,0,0,6,379.94Z"/><path class="cls-3" d="M2.77,378.73H1.61l-2.35-2.35a0.63,0.63,0,0,0-.89,0,0.63,0.63,0,0,0,0,.89l1.45,1.46H-3.62l-0.86-.86a0.63,0.63,0,0,0-.89,0,0.63,0.63,0,0,0,0,.89l0.47,0.47a0.7,0.7,0,0,0,0,.13,0.64,0.64,0,0,0,0,.13l-0.47.47a0.63,0.63,0,0,0,0,.89,0.63,0.63,0,0,0,.45.18,0.63,0.63,0,0,0,.45-0.18l0.86-.86h3.44l-1.45,1.46a0.63,0.63,0,0,0,0,.89,0.63,0.63,0,0,0,.45.19,0.63,0.63,0,0,0,.45-0.19L1.61,380H2.77A0.63,0.63,0,1,0,2.77,378.73Z"/><path class="cls-3" d="M0.71,383.89H-9.54a0.63,0.63,0,0,0-.63.63,0.63,0.63,0,0,0,.63.63H0.71A0.63,0.63,0,1,0,.71,383.89Z"/></g><path class="cls-1" d="M243.94,304.61c0-.75.72-1.53,1.55-2.43,1.3-1.42,2.93-3.19,2.93-6a7.74,7.74,0,0,0-15.49,0c0,2.82,1.62,4.59,2.93,6,0.83,0.9,1.55,1.68,1.55,2.43a0.67,0.67,0,0,0,.52.65l1.06,3.61a0.67,0.67,0,0,0-.19.47v2.4a0.68,0.68,0,0,0,.68.68h2.4a0.68,0.68,0,0,0,.68-0.68v-2.4a0.67,0.67,0,0,0-.19-0.47l1.06-3.61A0.67,0.67,0,0,0,243.94,304.61Zm3.11-8.44c0,2.29-1.36,3.78-2.57,5.08a6.93,6.93,0,0,0-1.82,2.67h-0.2a10.62,10.62,0,0,1,.6-2,15,15,0,0,0,1.17-5.79,13.44,13.44,0,0,0-1.22-5.93A6.39,6.39,0,0,1,247.06,296.17Zm-4.18,0a13.63,13.63,0,0,1-1.08,5.31,10.74,10.74,0,0,0-.71,2.45h-0.83a10.74,10.74,0,0,0-.71-2.45,13.66,13.66,0,0,1-1.08-5.31c0-3.9,1.3-6.38,2.2-6.38S242.88,292.27,242.88,296.17Zm-6,5.08c-1.21-1.31-2.57-2.79-2.57-5.08a6.38,6.38,0,0,1,4-5.93,13.44,13.44,0,0,0-1.22,5.93,15,15,0,0,0,1.17,5.79,10.62,10.62,0,0,1,.6,2h-0.2A7,7,0,0,0,236.86,301.25Zm1.78,4h1.69v3.37h-0.71Zm2.55,5.77h-1v-1h1v1Zm0.53-2.4H241v-3.37h1.69Z"/><g class="cls-2"><path class="cls-3" d="M231.51,215.53l-1.19,2.1a6,6,0,0,0-.69,2.6v10.16a2,2,0,0,0,2,2H237a2,2,0,0,0,2-2V220.22a6,6,0,0,0-.69-2.6l-1.19-2.1a4.49,4.49,0,0,1-.47-1.78v-0.21a8.17,8.17,0,0,1,0-.82,4.06,4.06,0,0,0,.17-1.52v-0.61c0-1,0-2-.93-2H232.7c-0.93,0-.93,1-0.93,2v0.61a4.11,4.11,0,0,0,.17,1.52,8,8,0,0,1,0,.82v0.21A4.47,4.47,0,0,1,231.51,215.53Zm1.44,0.82a6,6,0,0,0,.69-2.6v-0.21a4.06,4.06,0,0,0-.17-1.52,8.17,8.17,0,0,1,0-.82v-0.61c0-.13,0-0.24,0-0.34h1.8c0,0.1,0,.22,0,0.34v0.61a8.17,8.17,0,0,1,0,.82,4.11,4.11,0,0,0-.17,1.52v0.21a6,6,0,0,0,.69,2.6l1.19,2.1a4.49,4.49,0,0,1,.47,1.78v10.16a0.35,0.35,0,0,1-.35.34h-5.4a0.35,0.35,0,0,1-.34-0.34V220.22a4.46,4.46,0,0,1,.47-1.78Z"/><path class="cls-3" d="M251.51,219.93a1.47,1.47,0,0,0-1.36-2.25h-9.23a1.46,1.46,0,0,0-1.36,2.24c0.08,0.16,1.88,3.61,5.15,4.13v6.09l-3.1.81a0.83,0.83,0,0,0,.21,1.63h7.44a0.83,0.83,0,0,0,.21-1.62l-3.1-.81v-6.09C249.63,223.53,251.43,220.08,251.51,219.93Zm-10.37-.59h8.81c-0.39.68-2,3.13-4.41,3.13S241.59,220.11,241.14,219.34Z"/></g><g class="cls-2"><path class="cls-3" d="M251.86,376.54L250,374.67a1.38,1.38,0,0,0-.28-0.22,3.11,3.11,0,0,0-1.7-.6H230.2a1.53,1.53,0,0,0-1.53,1.52v10.51a1.53,1.53,0,0,0,1.53,1.52h21a1.53,1.53,0,0,0,1.52-1.52v-7.36a3.12,3.12,0,0,0-.6-1.7A1.63,1.63,0,0,0,251.86,376.54Zm-1.34.45H249.8a0.27,0.27,0,0,1-.26-0.26V376Zm0.89,8.89a0.27,0.27,0,0,1-.26.26h-3.54a0.69,0.69,0,0,0-1.37,0h-16a0.27,0.27,0,0,1-.26-0.26V375.37a0.27,0.27,0,0,1,.26-0.26h16a0.68,0.68,0,0,0,.19.45,0.69,0.69,0,0,0,1.18-.45H248a1.2,1.2,0,0,1,.28,0,1.6,1.6,0,0,0,0,.22v1.36a1.53,1.53,0,0,0,1.52,1.52h1.36l0.22,0a1.18,1.18,0,0,1,0,.28v7.36Z"/><path class="cls-3" d="M243.7,378.73h-1.16l-2.35-2.35a0.63,0.63,0,1,0-.89.89l1.45,1.46h-3.44l-0.86-.86a0.63,0.63,0,0,0-.89.89l0.47,0.47a0.7,0.7,0,0,0,0,.13,0.64,0.64,0,0,0,0,.13l-0.47.47a0.63,0.63,0,0,0,.89.89l0.86-.86h3.44l-1.45,1.46a0.63,0.63,0,1,0,.89.89l2.35-2.35h1.16A0.63,0.63,0,1,0,243.7,378.73Z"/><path class="cls-3" d="M234.66,379.68a0.32,0.32,0,1,0,0-.63h-3.9a0.32,0.32,0,1,0,0,.63h3.9Z"/><path class="cls-3" d="M230.76,382.48a0.63,0.63,0,0,0,.63.63h4.85a0.63,0.63,0,0,0,0-1.26h-4.85A0.63,0.63,0,0,0,230.76,382.48Z"/><path class="cls-3" d="M241.64,383.89H231.39a0.63,0.63,0,0,0,0,1.26h10.25A0.63,0.63,0,1,0,241.64,383.89Z"/></g><g class="cls-2"><path class="cls-3" d="M213.31,352.23h12.78a2.63,2.63,0,0,0,2.62-2.62V333.52a2.63,2.63,0,0,0-2.62-2.62H226v-0.46a2.12,2.12,0,0,0-2.74-2.12l-10.11,2.6,0,0L213,331l-0.1.07-0.09.1-0.07.11a0.63,0.63,0,0,0,0,.12,0.75,0.75,0,0,0,0,.13,0.48,0.48,0,0,0,0,.05v20A0.68,0.68,0,0,0,213.31,352.23Zm12.78-20a1.26,1.26,0,0,1,1.26,1.26v16.09a1.26,1.26,0,0,1-1.26,1.26H214v-18.6h12.09Zm-2.5-2.62a0.75,0.75,0,0,1,1,.79v0.46h-5.9Z"/><path class="cls-3" d="M220.68,345a5.43,5.43,0,0,0,5.4-6.28,0.49,0.49,0,0,0,0-.33h0A5.47,5.47,0,1,0,220.68,345Zm-1.79-7.46a8.73,8.73,0,0,0,1.28.16v1.51a11.53,11.53,0,0,1-1.57-.18A6.29,6.29,0,0,1,218.89,337.53Zm2.3-2.1a5.16,5.16,0,0,1,.85,1.14,8,8,0,0,1-.85.1v-1.24Zm1.57,3.61a11.56,11.56,0,0,1-1.57.17V337.7a8.71,8.71,0,0,0,1.28-.16A6.28,6.28,0,0,1,222.76,339Zm2.36,0.49a4.46,4.46,0,0,1-.11,1,6.83,6.83,0,0,1-1.39.69,7.32,7.32,0,0,0,.17-1.32,9.65,9.65,0,0,0,1.32-.45S225.12,339.49,225.12,339.53Zm-2.65,2a8.81,8.81,0,0,1-1.28.16v-1.42a12.36,12.36,0,0,0,1.56-.15A6.24,6.24,0,0,1,222.47,341.51Zm-2.3,2.12a5,5,0,0,1-.77-1c0.25,0,.51.05,0.77,0.07v0.93Zm1-.93c0.26,0,.51,0,0.77-0.06a5.06,5.06,0,0,1-.77,1V342.7Zm-1-6a7.9,7.9,0,0,1-.85-0.1,5.1,5.1,0,0,1,.85-1.13v1.24Zm0,3.58v1.42a9.11,9.11,0,0,1-1.28-.16,6.3,6.3,0,0,1-.28-1.41A12.7,12.7,0,0,0,220.16,340.25Zm-2.43.92a6.73,6.73,0,0,1-1.39-.7,4.44,4.44,0,0,1-.1-0.95s0-.08,0-0.12a9.83,9.83,0,0,0,1.32.45A7.26,7.26,0,0,0,217.73,341.17ZM217,342a8.23,8.23,0,0,0,1.16.4,6.52,6.52,0,0,0,.64,1.16A4.5,4.5,0,0,1,217,342Zm5.62,1.56a6.59,6.59,0,0,0,.64-1.15,8.6,8.6,0,0,0,1.15-.39A4.47,4.47,0,0,1,222.58,343.54Zm1.19-4.73a7.41,7.41,0,0,0-.32-1.53,6.52,6.52,0,0,0,.82-0.35,4.47,4.47,0,0,1,.69,1.43A8.2,8.2,0,0,1,223.77,338.8Zm-0.23-2.66-0.48.18a6.29,6.29,0,0,0-.48-0.8A4.5,4.5,0,0,1,223.54,336.14Zm-4.78-.62a6.33,6.33,0,0,0-.47.79l-0.47-.18A4.45,4.45,0,0,1,218.76,335.53Zm-1.67,1.39a6.41,6.41,0,0,0,.81.35,7.31,7.31,0,0,0-.32,1.53,8.08,8.08,0,0,1-1.18-.45A4.43,4.43,0,0,1,217.09,336.91Z"/><path class="cls-3" d="M221.95,347.24c-0.22,0-.49,0-0.49-0.28a0.45,0.45,0,0,1,.49-0.28,0.54,0.54,0,0,1,.47.21,0.51,0.51,0,0,0,.9-0.49,1.56,1.56,0,0,0-1.37-.74,1.42,1.42,0,0,0-1.52,1.3,1.34,1.34,0,0,0,1.52,1.31c0.6,0,.6.36,0.6,0.48a0.56,0.56,0,0,1-.6.48,0.61,0.61,0,0,1-.56-0.31,0.51,0.51,0,0,0-.93.45,1.64,1.64,0,0,0,1.48.89,1.57,1.57,0,0,0,1.62-1.51A1.48,1.48,0,0,0,221.95,347.24Z"/><path class="cls-3" d="M223.58,347a1.34,1.34,0,0,0,1.52,1.31c0.6,0,.6.36,0.6,0.48a0.55,0.55,0,0,1-.6.48,0.61,0.61,0,0,1-.56-0.31,0.51,0.51,0,0,0-.93.45,1.64,1.64,0,0,0,1.48.89,1.57,1.57,0,0,0,1.62-1.51,1.48,1.48,0,0,0-1.62-1.51c-0.22,0-.49,0-0.49-0.28a0.45,0.45,0,0,1,.49-0.28,0.54,0.54,0,0,1,.47.21,0.51,0.51,0,1,0,.9-0.49,1.55,1.55,0,0,0-1.37-.74A1.42,1.42,0,0,0,223.58,347Z"/><path class="cls-3" d="M219.38,346.08a0.51,0.51,0,0,0-1,0l-1,3.53a0.51,0.51,0,0,0,1,.29l0.16-.56h0.76l0.16,0.56a0.51,0.51,0,0,0,.49.37l0.14,0a0.51,0.51,0,0,0,.35-0.64Zm-0.57,2.23,0.08-.26,0.08,0.26h-0.15Z"/><path class="cls-3" d="M215.26,350.27a0.51,0.51,0,0,0,.51-0.51v-1.62h1.08a1.21,1.21,0,0,0,0-2.41h-1.59a0.51,0.51,0,0,0-.51.51v3.53A0.51,0.51,0,0,0,215.26,350.27Zm0.51-3.53h1.08a0.19,0.19,0,0,1,0,.36h-1.08v-0.36Z"/></g><g class="cls-2"><path class="cls-3" d="M131.14,378.77l-4.24,1-0.34-.08-0.09.26-0.2.55c-0.17.46-.33,0.87-0.48,1.25l-2.64,8.4-6-3.67,3-3.39c-0.18-.39-0.38-0.85-0.59-1.37l-3.93,4.39-3.54,2.16,5.68-6.42,1.61-.57-0.3-.78-0.17-.48-1.76.62a0.69,0.69,0,0,0-.28.19l-8.76,9.91a0.67,0.67,0,0,0,.86,1l7.1-4.32,7.1,4.32,0.09,0,0.06,0a0.71,0.71,0,0,0,.2,0h0l0.17,0,0.05,0,0.11,0h0l7.45-4.54a0.68,0.68,0,0,0,.32-0.55l0.3-7.17A0.68,0.68,0,0,0,131.14,378.77Zm-0.81,7.44-5.61,3.42,2.71-8.63,3.15-.72Z"/><path class="cls-3" d="M122.69,385c1.85,0,4.57-9.39,4.57-11a4.57,4.57,0,0,0-9.14,0C118.12,375.64,120.84,385,122.69,385Zm0-14.24a3.22,3.22,0,0,1,3.22,3.22c0,1.88-2.23,8-3.22,9.47-1-1.43-3.22-7.59-3.22-9.47A3.22,3.22,0,0,1,122.69,370.79Z"/><path class="cls-3" d="M124.92,374a2.23,2.23,0,1,0-2.23,2.23A2.23,2.23,0,0,0,124.92,374Zm-3.11,0a0.88,0.88,0,1,1,.88.88A0.88,0.88,0,0,1,121.81,374Z"/></g><path class="cls-1" d="M250.06,58a4.93,4.93,0,0,0-2.12.48l-1.85-2.69,0.66-1.36h0.87a0.79,0.79,0,1,0,0-1.58h-3.25a0.79,0.79,0,1,0,0,1.58H245l-0.31.64H235.8l0.54-1.16a0.79,0.79,0,0,0-.72-1.13c-0.29,0-.43-0.12-0.4-0.25a0.63,0.63,0,0,1,.41-0.1h3.24a0.79,0.79,0,0,0,0-1.58h-3.24a2.14,2.14,0,0,0-1.44.48,1.65,1.65,0,0,0-.57,1.24,1.75,1.75,0,0,0,.9,1.5l-1.92,4.09a5,5,0,1,0,1.44.65l0.8-1.72,5.09,4.16a2.36,2.36,0,0,0-.15.81,2.39,2.39,0,0,0,4.54,1l0.79,0.09A5,5,0,1,0,250.06,58Zm-15.37,5a3.43,3.43,0,1,1-2.78-3.33l-1.33,2.85a0.79,0.79,0,0,0,1.43.67l1.34-2.87A3.38,3.38,0,0,1,234.69,63Zm13.74-1-1.55-.17a3.37,3.37,0,0,1,.67-1.11Zm-11.66-5.35h7.15l-1.49,3.07-0.27,0a2.37,2.37,0,0,0-1.24.36Zm5.4,6.25a0.81,0.81,0,1,1,.81-0.81A0.81,0.81,0,0,1,242.17,62.93Zm2.33-1.34a2.38,2.38,0,0,0-.63-1.15l1.44-3,1.33,1.95a5,5,0,0,0-1.36,2.26Zm5.57,4.82a3.39,3.39,0,0,1-3.35-3L250,63.8h0.09a0.78,0.78,0,0,0,.26,0l0.08,0,0.1-.05,0,0a0.72,0.72,0,0,0,.13-0.13l0.07-.09a0.74,0.74,0,0,0,.06-0.15,0.83,0.83,0,0,0,0-.13,0.14,0.14,0,0,0,0,0,0.61,0.61,0,0,0,0-.11,0.52,0.52,0,0,0-.08-0.32,0.67,0.67,0,0,0,0-.1l-1.86-2.71a3.36,3.36,0,0,1,1.21-.23A3.39,3.39,0,0,1,250.06,66.41Z"/><g class="cls-2"><path class="cls-3" d="M252.07,146.31a0.71,0.71,0,0,0-.71-0.71H251l-4.34-8.3,0,0v0a0.76,0.76,0,0,0-.08-0.09l-0.09-.09,0,0h0l-0.06,0-0.14-.06h-0.31l-0.09,0h0l-0.09,0,0,0h0l-0.08.08-0.09.09,0,0h0l-2.29,3.31-5.57-8.13a0.67,0.67,0,0,0-.14-0.15l0,0a0.7,0.7,0,0,0-.19-0.09l0,0h0l-0.2,0h-0.1a0.71,0.71,0,0,0-.19.07l0,0a0.7,0.7,0,0,0-.18.16l0,0,0,0.07-7,13.13h-0.66a0.71,0.71,0,1,0,0,1.42h22.58A0.71,0.71,0,0,0,252.07,146.31Zm-7.42-5.38-0.28,1.32-0.32-.46Zm-9.79-2.51L233,145.6h-2Zm-0.39,7.18,2.87-11.11L245,145.6H234.48Zm12.2,0-1.19-1.74,0.88-4.16,3.09,5.9h-2.78Z"/></g></svg>