<?xml version="1.0" encoding="utf-8"?>
<!-- Generator: Adobe Illustrator 19.2.1, SVG Export Plug-In . SVG Version: 6.00 Build 0)  -->
<svg version="1.1" id="Layer_1" xmlns="http://www.w3.org/2000/svg" xmlns:xlink="http://www.w3.org/1999/xlink" x="0px" y="0px"
	 viewBox="0 0 172 105" style="enable-background:new 0 0 172 105;" xml:space="preserve">
<style type="text/css">
	.st0{fill-rule:evenodd;clip-rule:evenodd;fill:#9B9A9A;}
	.st1{fill-rule:evenodd;clip-rule:evenodd;}
	.st2{fill-rule:evenodd;clip-rule:evenodd;fill:#A30C51;}
</style>
<path class="st0" d="M82.4,20.9l3.1,1.8c0.5-0.3,2.6-1.7,2.9-2.3l-5.5-0.8L82.4,20.9z"/>
<path class="st0" d="M101.5,12.1c-0.6,0-1.5,0-2.1,0L89.8,12l-0.6,1.6l6.2,3.7l-8,6.5c2.1,0.8,3.7,1,5.2,0.9c1.9-0.2,2.9-0.9,4.4-2
	c2.3-1.8,5.9-4.7,9.5-7.7c2.5-2.1,4.9-3.6,6-5.2c0.5-0.8,1.2-1.8,1.2-2.6c0.1-1.2-0.4-2-2.3-1.6c-0.6,0.1-1.2,0.3-1.8,0.6
	C106.2,7.9,102.8,12.1,101.5,12.1"/>
<path class="st1" d="M129.2,46.7v2.4c0.1,7.2,4.5,15.8,11.3,18.7c13.6,5.4,22.3-1.4,28.2-4.2l-2-4.2c-3.9,2.2-7.2,5-12.5,5h-0.9
	c-4,0-7.8-2.9-9.4-5.3c-1.8-2.7-3.2-7.1-3.2-11.5v-1.7h27.6v-4.4c0-9.8-7.9-16.2-17.8-16.2c-4.5,0-8.7,1.1-12.5,3.6
	C132.2,32.7,129.2,39.8,129.2,46.7 M156.7,40.9L140.6,41c0.5-3.5,1.6-7.5,4.3-9.7c2.2-1.9,6-2.6,8.5-1.1
	C156.7,32.1,157,37.7,156.7,40.9z"/>
<polygon class="st1" points="27.8,64.5 22,64.5 22,68.5 42.2,68.5 42.2,64.5 34.2,64.5 52.5,18.7 52.7,18.7 70,64.4 63.6,64.4 
	63.6,68.6 87.2,68.6 87.2,64.5 83.3,64.5 59,2.2 52.9,2.2 "/>
<path class="st1" d="M89.3,47.2v1.7c0,6.1,2.5,11.5,5.6,14.6c3.3,3.3,6.5,5,10.7,5.8c7.5,1.4,13.6-1.1,20.3-4.3l-2.3-4.3
	c-3,1.8-6.4,3.7-10,3.7c-5.3,0-9.3-5.1-11.2-9.7c-0.9-2.1-1.6-4.5-1.6-6.6c0-3.7,0.3-7.5,1.8-10.7c1.7-3.6,6.3-7.4,9.1-8
	c2.2,0.2,8,5.3,8.5,5.9l5.8-5.9c-2-1.5-3.8-2.3-5.7-3c-7.3-2.4-16-1.5-21.7,2.6C93,33.2,89.8,39.8,89.3,47.2"/>
<path class="st2" d="M1.9,49.1c0.6,0.9,1.5,1.4,3,1.5c22.5,2.1,53-3.4,74.5-16l5.2-3l-5.1-5C68.4,33.5,39.7,49.9,1.9,49.1"/>
<path d="M157.6,101.1h10.5v1.9h-12.8V82.9h2.3V101.1z M131.7,101.1h12v1.9h-14.3V82.9h13.9v1.9h-11.7v6.8h10.9v1.9h-10.9V101.1z
	 M109.5,99.9L109.5,99.9l7.4-17h2.5l-8.8,20.1h-2.3l-8.5-20.1h2.5L109.5,99.9z M75.3,103h-2.7l9.8-20.1h2.2l9.8,20.1h-2.7l-2.5-5.3
	H77.8L75.3,103z M78.7,95.9h9.8l-4.9-10.5L78.7,95.9z M52.1,103h-2.3V82.9h6.9c2.3,0,4.1,0.4,5.4,1.3c1.3,0.9,2,2.2,2,4
	c0,1.4-0.5,2.6-1.5,3.5c-1,1-2.4,1.5-4.3,1.7l6.5,9.5h-2.8l-6.2-9.3h-3.8V103z M52.1,91.8h4.1c1,0,1.9-0.1,2.6-0.3
	c0.7-0.2,1.3-0.4,1.7-0.8c0.4-0.3,0.7-0.7,0.9-1.1c0.2-0.4,0.3-0.9,0.3-1.4c0-0.5-0.1-0.9-0.3-1.3c-0.2-0.4-0.5-0.8-0.9-1.1
	c-0.4-0.3-1-0.6-1.7-0.8c-0.7-0.2-1.6-0.3-2.6-0.3h-4.1V91.8z M31.7,103h-2.3V84.8h-7.5v-1.9h17.3v1.9h-7.5V103z"/>
</svg>
